<svg xmlns="http://www.w3.org/2000/svg" xmlns:xlink="http://www.w3.org/1999/xlink" width="40" zoomAndPan="magnify" viewBox="0 0 30 30.000001" height="40" preserveAspectRatio="xMidYMid meet" version="1.0"><defs><clipPath id="id1"><path d="M 0.484375 0 L 29.515625 0 L 29.515625 29.03125 L 0.484375 29.03125 Z M 0.484375 0 " clip-rule="nonzero"/></clipPath><clipPath id="id2"><path d="M 4.183594 3.703125 L 25.960938 3.703125 L 25.960938 21 L 4.183594 21 Z M 4.183594 3.703125 " clip-rule="nonzero"/></clipPath><clipPath id="id3"><path d="M 8 21 L 22 21 L 22 25.476562 L 8 25.476562 Z M 8 21 " clip-rule="nonzero"/></clipPath><clipPath id="id4"><path d="M 4.183594 16 L 25.960938 16 L 25.960938 18 L 4.183594 18 Z M 4.183594 16 " clip-rule="nonzero"/></clipPath></defs><g clip-path="url(#id1)"><path fill="rgb(100%, 100%, 100%)" d="M 0.484375 0 L 29.515625 0 L 29.515625 36.289062 L 0.484375 36.289062 Z M 0.484375 0 " fill-opacity="1" fill-rule="nonzero"/><path fill="rgb(100%, 100%, 100%)" d="M 0.484375 0 L 29.515625 0 L 29.515625 29.03125 L 0.484375 29.03125 Z M 0.484375 0 " fill-opacity="1" fill-rule="nonzero"/><path fill="rgb(100%, 100%, 100%)" d="M 0.484375 0 L 29.515625 0 L 29.515625 29.03125 L 0.484375 29.03125 Z M 0.484375 0 " fill-opacity="1" fill-rule="nonzero"/><path fill="rgb(100%, 100%, 100%)" d="M 0.484375 0 L 29.515625 0 L 29.515625 29.03125 L 0.484375 29.03125 Z M 0.484375 0 " fill-opacity="1" fill-rule="nonzero"/></g><g clip-path="url(#id2)"><path fill="rgb(0%, 0%, 0%)" d="M 25.183594 20.03125 L 4.964844 20.03125 C 4.75 20.03125 4.566406 19.957031 4.414062 19.804688 C 4.261719 19.652344 4.183594 19.46875 4.183594 19.253906 L 4.183594 4.480469 C 4.183594 4.265625 4.261719 4.082031 4.414062 3.929688 C 4.566406 3.777344 4.75 3.703125 4.964844 3.703125 L 25.183594 3.703125 C 25.398438 3.703125 25.578125 3.777344 25.730469 3.929688 C 25.882812 4.082031 25.960938 4.265625 25.960938 4.480469 L 25.960938 19.253906 C 25.960938 19.46875 25.882812 19.652344 25.730469 19.804688 C 25.578125 19.957031 25.398438 20.03125 25.183594 20.03125 Z M 5.742188 18.476562 L 24.40625 18.476562 L 24.40625 5.257812 L 5.742188 5.257812 Z M 5.742188 18.476562 " fill-opacity="1" fill-rule="nonzero"/></g><path fill="rgb(0%, 0%, 0%)" d="M 16.628906 23.144531 L 13.515625 23.144531 C 13.300781 23.144531 13.121094 23.066406 12.96875 22.914062 C 12.816406 22.761719 12.738281 22.578125 12.738281 22.363281 L 12.738281 19.253906 C 12.738281 19.039062 12.816406 18.855469 12.96875 18.703125 C 13.121094 18.554688 13.300781 18.476562 13.515625 18.476562 L 16.628906 18.476562 C 16.84375 18.476562 17.027344 18.554688 17.179688 18.703125 C 17.328125 18.855469 17.40625 19.039062 17.40625 19.253906 L 17.40625 22.363281 C 17.40625 22.578125 17.328125 22.761719 17.179688 22.914062 C 17.027344 23.066406 16.84375 23.144531 16.628906 23.144531 Z M 14.296875 21.585938 L 15.851562 21.585938 L 15.851562 20.03125 L 14.296875 20.03125 Z M 14.296875 21.585938 " fill-opacity="1" fill-rule="nonzero"/><g clip-path="url(#id3)"><path fill="rgb(0%, 0%, 0%)" d="M 20.515625 25.476562 L 9.628906 25.476562 C 9.414062 25.476562 9.230469 25.398438 9.078125 25.246094 C 8.925781 25.097656 8.851562 24.914062 8.851562 24.699219 C 8.851562 24.285156 8.929688 23.890625 9.089844 23.507812 C 9.246094 23.125 9.472656 22.789062 9.761719 22.5 C 10.054688 22.207031 10.390625 21.980469 10.773438 21.824219 C 11.152344 21.667969 11.550781 21.585938 11.960938 21.585938 L 18.183594 21.585938 C 18.59375 21.585938 18.992188 21.667969 19.375 21.824219 C 19.753906 21.980469 20.089844 22.207031 20.382812 22.5 C 20.675781 22.789062 20.898438 23.125 21.058594 23.507812 C 21.214844 23.890625 21.292969 24.285156 21.292969 24.699219 C 21.292969 24.914062 21.21875 25.097656 21.066406 25.246094 C 20.914062 25.398438 20.730469 25.476562 20.515625 25.476562 Z M 10.617188 23.921875 L 19.527344 23.921875 C 19.390625 23.679688 19.199219 23.492188 18.960938 23.351562 C 18.71875 23.210938 18.460938 23.144531 18.183594 23.144531 L 11.960938 23.144531 C 11.683594 23.144531 11.425781 23.210938 11.183594 23.351562 C 10.945312 23.492188 10.753906 23.679688 10.617188 23.921875 Z M 10.617188 23.921875 " fill-opacity="1" fill-rule="nonzero"/></g><path fill="rgb(0%, 0%, 0%)" d="M 11.960938 13.035156 C 11.746094 13.035156 11.5625 12.957031 11.414062 12.804688 L 9.855469 11.25 C 9.707031 11.097656 9.628906 10.914062 9.628906 10.699219 C 9.628906 10.484375 9.707031 10.300781 9.855469 10.152344 L 11.414062 8.59375 C 11.566406 8.449219 11.746094 8.375 11.960938 8.378906 C 12.171875 8.378906 12.351562 8.453125 12.503906 8.605469 C 12.652344 8.753906 12.726562 8.9375 12.730469 9.148438 C 12.730469 9.359375 12.660156 9.542969 12.511719 9.695312 L 11.507812 10.699219 L 12.511719 11.707031 C 12.757812 11.949219 12.8125 12.234375 12.679688 12.554688 C 12.546875 12.875 12.308594 13.035156 11.960938 13.035156 Z M 11.960938 13.035156 " fill-opacity="1" fill-rule="nonzero"/><path fill="rgb(0%, 0%, 0%)" d="M 18.183594 13.035156 C 17.835938 13.035156 17.597656 12.875 17.464844 12.554688 C 17.332031 12.234375 17.386719 11.949219 17.632812 11.707031 L 18.640625 10.699219 L 17.632812 9.695312 C 17.484375 9.542969 17.414062 9.359375 17.414062 9.148438 C 17.417969 8.9375 17.492188 8.753906 17.644531 8.605469 C 17.792969 8.453125 17.972656 8.378906 18.1875 8.378906 C 18.398438 8.375 18.582031 8.449219 18.734375 8.59375 L 20.289062 10.152344 C 20.441406 10.300781 20.515625 10.484375 20.515625 10.699219 C 20.515625 10.914062 20.441406 11.097656 20.289062 11.25 L 18.734375 12.804688 C 18.582031 12.957031 18.398438 13.035156 18.183594 13.035156 Z M 18.183594 13.035156 " fill-opacity="1" fill-rule="nonzero"/><path fill="rgb(0%, 0%, 0%)" d="M 14.296875 13.035156 C 14.160156 13.035156 14.035156 13 13.917969 12.933594 C 13.796875 12.871094 13.703125 12.777344 13.632812 12.664062 C 13.5625 12.550781 13.523438 12.425781 13.519531 12.289062 C 13.511719 12.15625 13.539062 12.027344 13.601562 11.90625 L 15.15625 8.796875 C 15.25 8.605469 15.402344 8.476562 15.605469 8.40625 C 15.808594 8.339844 16.007812 8.351562 16.199219 8.449219 C 16.390625 8.546875 16.519531 8.695312 16.589844 8.898438 C 16.65625 9.101562 16.644531 9.300781 16.546875 9.492188 L 14.992188 12.601562 C 14.847656 12.890625 14.617188 13.035156 14.296875 13.035156 Z M 14.296875 13.035156 " fill-opacity="1" fill-rule="nonzero"/><g clip-path="url(#id4)"><path fill="rgb(0%, 0%, 0%)" d="M 25.183594 17.699219 L 4.964844 17.699219 C 4.75 17.699219 4.566406 17.625 4.414062 17.472656 C 4.261719 17.320312 4.183594 17.136719 4.183594 16.921875 C 4.183594 16.707031 4.261719 16.523438 4.414062 16.371094 C 4.566406 16.21875 4.75 16.144531 4.964844 16.144531 L 25.183594 16.144531 C 25.398438 16.144531 25.578125 16.21875 25.730469 16.371094 C 25.882812 16.523438 25.960938 16.707031 25.960938 16.921875 C 25.960938 17.136719 25.882812 17.320312 25.730469 17.472656 C 25.578125 17.625 25.398438 17.699219 25.183594 17.699219 Z M 25.183594 17.699219 " fill-opacity="1" fill-rule="nonzero"/></g></svg>