<svg xmlns="http://www.w3.org/2000/svg" xmlns:xlink="http://www.w3.org/1999/xlink" width="500" zoomAndPan="magnify" viewBox="0 0 375 374.999991" height="500" preserveAspectRatio="xMidYMid meet" version="1.0"><defs><g><g id="id1"/><g id="id2"/><g id="id3"/><g id="id4"/><g id="id5"/><g id="id6"/><g id="id7"/><g id="id8"/><g id="id9"/><g id="id10"/><g id="id11"/><g id="id12"/><g id="id13"/><g id="id14"/><g id="id15"/><g id="id16"/><g id="id17"/><g id="id18"/><g id="id19"/><g id="id20"/><g id="id21"/><g id="id22"/><g id="id23"/></g><clipPath id="id24"><path d="M 175.429688 128.195312 L 199.429688 128.195312 L 199.429688 147 L 175.429688 147 Z M 175.429688 128.195312 " clip-rule="nonzero"/></clipPath><clipPath id="id25"><path d="M 180 147 L 195 147 L 195 152.195312 L 180 152.195312 Z M 180 147 " clip-rule="nonzero"/></clipPath><clipPath id="id26"><path d="M 175.429688 141 L 199.429688 141 L 199.429688 144 L 175.429688 144 Z M 175.429688 141 " clip-rule="nonzero"/></clipPath></defs><path stroke-linecap="butt" transform="matrix(0.730714, 0, 0, 0.730714, 59.451409, 59.451404)" fill="none" stroke-linejoin="round" d="M 280.389399 207.002305 C 279.539417 209.803502 278.577174 212.567279 277.502669 215.28829 C 276.428164 218.014646 275.246742 220.692891 273.963751 223.323023 C 272.675414 225.953155 271.285507 228.529829 269.79403 231.053045 C 268.302552 233.570916 266.71485 236.029982 265.025579 238.419553 C 263.336307 240.81447 261.556156 243.139892 259.685127 245.390473 C 257.808753 247.641053 255.852191 249.811447 253.804751 251.906999 C 251.757311 254.002551 249.629683 256.012571 247.427215 257.937058 C 245.219401 259.866891 242.936746 261.700499 240.584595 263.443229 C 238.232444 265.185959 235.816144 266.832464 233.330349 268.382745 C 230.844553 269.933026 228.299954 271.387083 225.701896 272.734224 C 223.103839 274.081365 220.452324 275.32159 217.752696 276.460244 C 215.053069 277.598899 212.316021 278.625292 209.53086 279.539424 C 206.751046 280.458901 203.939157 281.266116 201.095193 281.96107 C 198.245883 282.656023 195.380536 283.233369 192.48846 283.698454 C 189.596384 284.163538 186.693616 284.511015 183.769465 284.74623 C 180.85066 284.976099 177.926509 285.093707 175.002358 285.093707 C 172.072861 285.093707 169.14871 284.976099 166.229905 284.74623 C 163.3111 284.511015 160.402986 284.163538 157.51091 283.698454 C 154.618834 283.233369 151.753487 282.656023 148.904177 281.96107 C 146.060213 281.266116 143.248324 280.458901 140.46851 279.539424 C 137.683349 278.625292 134.946301 277.598899 132.246674 276.460244 C 129.547046 275.32159 126.895531 274.081365 124.297474 272.734224 C 121.699417 271.387083 119.154817 269.933026 116.669022 268.382745 C 114.188572 266.832464 111.766926 265.185959 109.414775 263.443229 C 107.062625 261.700499 104.779969 259.866891 102.572155 257.937058 C 100.369687 256.012571 98.24206 254.002551 96.194619 251.906999 C 94.147179 249.811447 92.190617 247.641053 90.314243 245.390473 C 88.443214 243.139892 86.663063 240.81447 84.973791 238.419553 C 83.28452 236.029982 81.696818 233.570916 80.205341 231.053045 C 78.713863 228.529829 77.323956 225.953155 76.035619 223.323023 C 74.752628 220.692891 73.571207 218.014646 72.496701 215.28829 C 71.427542 212.567279 70.459953 209.803502 69.609971 207.002305 " stroke="rgb(13.729858%, 12.159729%, 12.548828%)" stroke-width="1.8" stroke-opacity="1" stroke-miterlimit="4"/><path stroke-linecap="butt" transform="matrix(0.730714, 0, 0, 0.730714, 59.451409, 59.451404)" fill="none" stroke-linejoin="round" d="M 26.13795 207.002305 C 27.046736 211.214793 28.131933 215.384514 29.393541 219.51147 C 30.655149 223.633079 32.093168 227.695885 33.696907 231.699887 C 35.305992 235.703889 37.080797 239.627703 39.021321 243.482023 C 40.961845 247.330997 43.062743 251.094438 45.324016 254.767 C 47.585288 258.439563 49.996242 262.010555 52.562225 265.479978 C 55.122861 268.9494 57.83318 272.301214 60.68249 275.540767 C 63.5318 278.774975 66.509409 281.886228 69.626008 284.874529 C 72.737262 287.857484 75.971469 290.706793 79.32863 293.417112 C 82.680445 296.127431 86.144521 298.688068 89.720859 301.104368 C 93.291852 303.520669 96.959068 305.776595 100.727855 307.882839 C 104.491296 309.983737 108.34027 311.924261 112.269431 313.704412 C 116.198591 315.479216 120.197248 317.088301 124.265399 318.526321 C 128.328205 319.958994 132.449814 321.225948 136.624882 322.311145 C 140.799949 323.396342 145.012437 324.305127 149.262346 325.032156 C 153.512254 325.76453 157.788892 326.309801 162.086913 326.678661 C 166.379587 327.042175 170.6883 327.223932 175.002358 327.223932 C 179.31107 327.223932 183.619783 327.042175 187.917803 326.678661 C 192.210478 326.309801 196.487116 325.76453 200.737024 325.032156 C 204.986933 324.305127 209.199421 323.396342 213.374488 322.311145 C 217.549556 321.225948 221.671165 319.958994 225.733971 318.526321 C 229.802123 317.088301 233.800779 315.479216 237.729939 313.704412 C 241.6591 311.924261 245.508074 309.983737 249.271515 307.882839 C 253.040302 305.776595 256.707519 303.520669 260.278511 301.104368 C 263.854849 298.688068 267.318926 296.127431 270.67074 293.417112 C 274.027901 290.706793 277.262108 287.857484 280.378707 284.874529 C 283.489961 281.886228 286.472916 278.774975 289.322226 275.540767 C 292.171536 272.301214 294.876509 268.9494 297.437146 265.479978 C 300.003128 262.010555 302.414083 258.439563 304.675355 254.767 C 306.936627 251.094438 309.037525 247.330997 310.978049 243.482023 C 312.918574 239.627703 314.693378 235.703889 316.302463 231.699887 C 317.906202 227.695885 319.344221 223.633079 320.60583 219.51147 C 321.867438 215.384514 322.952634 211.214793 323.86142 207.002305 " stroke="rgb(13.729858%, 12.159729%, 12.548828%)" stroke-width="1.8" stroke-opacity="1" stroke-miterlimit="4"/><path stroke-linecap="butt" transform="matrix(0.730714, 0, 0, 0.730714, 59.451409, 59.451404)" fill="none" stroke-linejoin="round" d="M 323.86142 143.002424 C 322.952634 138.78459 321.867438 134.614868 320.60583 130.487913 C 319.344221 126.366303 317.906202 122.303498 316.302463 118.299496 C 314.693378 114.295494 312.918574 110.371679 310.978049 106.517359 C 309.037525 102.668386 306.936627 98.904945 304.675355 95.232382 C 302.414083 91.559819 300.003128 87.988827 297.437146 84.519405 C 294.876509 81.049983 292.171536 77.698168 289.322226 74.458615 C 286.472916 71.224408 283.489961 68.113154 280.378707 65.124854 C 277.262108 62.141899 274.027901 59.292589 270.67074 56.58227 C 267.318926 53.871951 263.854849 51.311314 260.278511 48.895014 C 256.707519 46.478714 253.040302 44.222787 249.271515 42.116543 C 245.508074 40.015645 241.6591 38.075121 237.729939 36.294971 C 233.800779 34.520166 229.802123 32.911081 225.733971 31.473062 C 221.671165 30.040388 217.549556 28.77878 213.374488 27.688238 C 209.199421 26.603041 204.986933 25.694255 200.737024 24.967227 C 196.487116 24.234853 192.210478 23.689581 187.917803 23.320721 C 183.619783 22.957207 179.31107 22.77545 175.002358 22.77545 C 170.6883 22.77545 166.379587 22.957207 162.086913 23.320721 C 157.788892 23.689581 153.512254 24.234853 149.262346 24.967227 C 145.012437 25.694255 140.799949 26.603041 136.624882 27.688238 C 132.449814 28.77878 128.328205 30.040388 124.265399 31.473062 C 120.197248 32.911081 116.198591 34.520166 112.269431 36.294971 C 108.34027 38.075121 104.491296 40.015645 100.727855 42.116543 C 96.959068 44.222787 93.291852 46.478714 89.720859 48.895014 C 86.144521 51.311314 82.680445 53.871951 79.32863 56.58227 C 75.971469 59.292589 72.737262 62.141899 69.626008 65.124854 C 66.509409 68.113154 63.526454 71.224408 60.68249 74.458615 C 57.83318 77.698168 55.122861 81.049983 52.562225 84.519405 C 49.996242 87.988827 47.585288 91.559819 45.324016 95.232382 C 43.062743 98.904945 40.961845 102.668386 39.021321 106.517359 C 37.080797 110.371679 35.305992 114.295494 33.696907 118.299496 C 32.093168 122.303498 30.655149 126.366303 29.393541 130.487913 C 28.131933 134.614868 27.046736 138.78459 26.13795 143.002424 " stroke="rgb(13.729858%, 12.159729%, 12.548828%)" stroke-width="1.8" stroke-opacity="1" stroke-miterlimit="4"/><path stroke-linecap="butt" transform="matrix(0.730714, 0, 0, 0.730714, 59.451409, 59.451404)" fill="none" stroke-linejoin="round" d="M 69.609971 143.002424 C 70.459953 140.19588 71.427542 137.432103 72.496701 134.711092 C 73.571207 131.984736 74.752628 129.306492 76.035619 126.67636 C 77.323956 124.046228 78.713863 121.469553 80.205341 118.946337 C 81.696818 116.428467 83.28452 113.9694 84.973791 111.579829 C 86.663063 109.184912 88.443214 106.864836 90.314243 104.60891 C 92.190617 102.358329 94.147179 100.187936 96.194619 98.092383 C 98.24206 95.996831 100.369687 93.986811 102.572155 92.062324 C 104.779969 90.132492 107.062625 88.298883 109.414775 86.556154 C 111.766926 84.813424 114.188572 83.166918 116.669022 81.616637 C 119.154817 80.066356 121.699417 78.617645 124.297474 77.265158 C 126.895531 75.918018 129.547046 74.677793 132.246674 73.539138 C 134.946301 72.405829 137.683349 71.37409 140.46851 70.459959 C 143.248324 69.540482 146.060213 68.733267 148.904177 68.038313 C 151.753487 67.348705 154.618834 66.766013 157.51091 66.300929 C 160.402986 65.835845 163.3111 65.488368 166.229905 65.253153 C 169.14871 65.023283 172.072861 64.905676 175.002358 64.905676 C 177.926509 64.905676 180.85066 65.023283 183.769465 65.253153 C 186.693616 65.488368 189.596384 65.835845 192.48846 66.300929 C 195.380536 66.766013 198.245883 67.348705 201.095193 68.038313 C 203.939157 68.733267 206.751046 69.540482 209.53086 70.459959 C 212.316021 71.37409 215.053069 72.405829 217.752696 73.539138 C 220.452324 74.677793 223.103839 75.918018 225.701896 77.265158 C 228.299954 78.617645 230.844553 80.066356 233.330349 81.616637 C 235.816144 83.166918 238.232444 84.813424 240.584595 86.556154 C 242.936746 88.298883 245.219401 90.132492 247.427215 92.062324 C 249.629683 93.986811 251.757311 95.996831 253.804751 98.092383 C 255.852191 100.187936 257.808753 102.358329 259.685127 104.60891 C 261.556156 106.864836 263.336307 109.184912 265.025579 111.579829 C 266.71485 113.9694 268.302552 116.428467 269.79403 118.946337 C 271.285507 121.469553 272.675414 124.046228 273.963751 126.67636 C 275.246742 129.306492 276.428164 131.984736 277.502669 134.711092 C 278.577174 137.432103 279.539417 140.19588 280.389399 143.002424 " stroke="rgb(13.729858%, 12.159729%, 12.548828%)" stroke-width="1.8" stroke-opacity="1" stroke-miterlimit="4"/><path stroke-linecap="butt" transform="matrix(0.730714, 0, 0, 0.730714, 59.451409, 59.451404)" fill="none" stroke-linejoin="round" d="M 280.389399 143.002424 C 279.539417 140.19588 278.577174 137.432103 277.502669 134.711092 C 276.428164 131.984736 275.246742 129.306492 273.963751 126.67636 C 272.675414 124.046228 271.285507 121.469553 269.79403 118.946337 C 268.302552 116.428467 266.71485 113.9694 265.025579 111.579829 C 263.336307 109.184912 261.556156 106.864836 259.685127 104.60891 C 257.808753 102.358329 255.852191 100.187936 253.804751 98.092383 C 251.757311 95.996831 249.629683 93.986811 247.427215 92.062324 C 245.219401 90.132492 242.936746 88.298883 240.584595 86.556154 C 238.232444 84.813424 235.816144 83.166918 233.330349 81.616637 C 230.844553 80.066356 228.299954 78.617645 225.701896 77.265158 C 223.103839 75.918018 220.452324 74.677793 217.752696 73.539138 C 215.053069 72.405829 212.316021 71.37409 209.53086 70.459959 C 206.751046 69.540482 203.939157 68.733267 201.095193 68.038313 C 198.245883 67.348705 195.380536 66.766013 192.48846 66.300929 C 189.596384 65.835845 186.693616 65.488368 183.769465 65.253153 C 180.85066 65.023283 177.926509 64.905676 175.002358 64.905676 C 172.072861 64.905676 169.14871 65.023283 166.229905 65.253153 C 163.3111 65.488368 160.402986 65.835845 157.51091 66.300929 C 154.618834 66.766013 151.753487 67.348705 148.904177 68.038313 C 146.060213 68.733267 143.248324 69.540482 140.46851 70.459959 C 137.683349 71.37409 134.946301 72.405829 132.246674 73.539138 C 129.547046 74.677793 126.895531 75.918018 124.297474 77.265158 C 121.699417 78.617645 119.154817 80.066356 116.669022 81.616637 C 114.188572 83.166918 111.766926 84.813424 109.414775 86.556154 C 107.062625 88.298883 104.779969 90.132492 102.572155 92.062324 C 100.369687 93.986811 98.24206 95.996831 96.194619 98.092383 C 94.147179 100.187936 92.190617 102.358329 90.314243 104.60891 C 88.443214 106.864836 86.663063 109.184912 84.973791 111.579829 C 83.28452 113.9694 81.696818 116.428467 80.205341 118.946337 C 78.713863 121.469553 77.323956 124.046228 76.035619 126.67636 C 74.752628 129.306492 73.571207 131.984736 72.496701 134.711092 C 71.427542 137.432103 70.459953 140.19588 69.609971 143.002424 " stroke="rgb(13.729858%, 12.159729%, 12.548828%)" stroke-width="1.8" stroke-opacity="1" stroke-miterlimit="4"/><path stroke-linecap="butt" transform="matrix(0.730714, 0, 0, 0.730714, 59.451409, 59.451404)" fill="none" stroke-linejoin="round" d="M 8.250914 142.970349 L 341.748457 142.970349 " stroke="rgb(13.729858%, 12.159729%, 12.548828%)" stroke-width="1.8" stroke-opacity="1" stroke-miterlimit="4"/><path stroke-linecap="butt" transform="matrix(0.730714, 0, 0, 0.730714, 59.451409, 59.451404)" fill="none" stroke-linejoin="round" d="M 8.250914 206.97023 L 341.748457 206.97023 " stroke="rgb(13.729858%, 12.159729%, 12.548828%)" stroke-width="1.8" stroke-opacity="1" stroke-miterlimit="4"/><g fill="rgb(0%, 0%, 0%)" fill-opacity="1"><g transform="translate(112.275934, 138.391139)"><g><path d="M -6.90625 -5.34375 C -7.03125 -5.4375 -7.082031 -5.585938 -7.0625 -5.796875 C -7.039062 -6.003906 -6.96875 -6.1875 -6.84375 -6.34375 C -6.6875 -6.550781 -6.519531 -6.617188 -6.34375 -6.546875 L 0.703125 -3.90625 L -2.25 -7.5625 C -2.425781 -7.757812 -2.394531 -8.015625 -2.15625 -8.328125 C -1.945312 -8.617188 -1.710938 -8.71875 -1.453125 -8.625 L 2.875 -6.828125 L -1.71875 -12.796875 C -1.832031 -12.953125 -1.804688 -13.140625 -1.640625 -13.359375 C -1.523438 -13.515625 -1.375 -13.632812 -1.1875 -13.71875 C -1 -13.800781 -0.84375 -13.796875 -0.71875 -13.703125 C -0.675781 -13.671875 -0.640625 -13.640625 -0.609375 -13.609375 L 4.5 -6.6875 C 4.582031 -6.570312 4.601562 -6.421875 4.5625 -6.234375 C 4.53125 -6.054688 4.457031 -5.882812 4.34375 -5.71875 C 4.226562 -5.5625 4.085938 -5.441406 3.921875 -5.359375 C 3.753906 -5.285156 3.613281 -5.273438 3.5 -5.328125 L -0.171875 -6.84375 L 2.34375 -3.765625 C 2.425781 -3.671875 2.453125 -3.53125 2.421875 -3.34375 C 2.390625 -3.15625 2.3125 -2.976562 2.1875 -2.8125 C 2.070312 -2.65625 1.929688 -2.535156 1.765625 -2.453125 C 1.597656 -2.378906 1.453125 -2.363281 1.328125 -2.40625 L -6.796875 -5.28125 C -6.828125 -5.289062 -6.863281 -5.3125 -6.90625 -5.34375 Z M -6.90625 -5.34375 "/></g></g></g><g fill="rgb(0%, 0%, 0%)" fill-opacity="1"><g transform="translate(123.71664, 124.383867)"><g><path d="M 0.3125 -0.890625 L -5.4375 -7.03125 C -5.53125 -7.125 -5.5625 -7.238281 -5.53125 -7.375 C -5.5 -7.507812 -5.421875 -7.632812 -5.296875 -7.75 L -2 -10.84375 C -1.894531 -10.9375 -1.773438 -10.96875 -1.640625 -10.9375 C -1.503906 -10.90625 -1.382812 -10.832031 -1.28125 -10.71875 C -1.164062 -10.601562 -1.097656 -10.472656 -1.078125 -10.328125 C -1.054688 -10.191406 -1.09375 -10.078125 -1.1875 -9.984375 L -3.9375 -7.40625 L -1.953125 -5.28125 L -0.53125 -6.609375 C -0.425781 -6.703125 -0.304688 -6.734375 -0.171875 -6.703125 C -0.046875 -6.679688 0.0664062 -6.617188 0.171875 -6.515625 C 0.265625 -6.410156 0.316406 -6.296875 0.328125 -6.171875 C 0.347656 -6.046875 0.304688 -5.929688 0.203125 -5.828125 L -1.21875 -4.5 L 0.78125 -2.359375 L 3.53125 -4.9375 C 3.625 -5.03125 3.738281 -5.0625 3.875 -5.03125 C 4.019531 -5 4.15625 -4.921875 4.28125 -4.796875 C 4.375 -4.691406 4.429688 -4.566406 4.453125 -4.421875 C 4.484375 -4.285156 4.445312 -4.171875 4.34375 -4.078125 L 1.046875 -0.984375 C 0.921875 -0.867188 0.789062 -0.800781 0.65625 -0.78125 C 0.519531 -0.757812 0.40625 -0.796875 0.3125 -0.890625 Z M 0.3125 -0.890625 "/></g></g></g><g fill="rgb(0%, 0%, 0%)" fill-opacity="1"><g transform="translate(134.362812, 115.186893)"><g><path d="M 0.453125 -0.828125 L -4.25 -7.796875 C -4.320312 -7.910156 -4.332031 -8.03125 -4.28125 -8.15625 C -4.238281 -8.289062 -4.148438 -8.40625 -4.015625 -8.5 L -2.09375 -9.78125 C -1.445312 -10.21875 -0.835938 -10.4375 -0.265625 -10.4375 C 0.296875 -10.4375 0.804688 -10.09375 1.265625 -9.40625 C 1.847656 -8.53125 1.9375 -7.765625 1.53125 -7.109375 C 1.976562 -7.210938 2.378906 -7.191406 2.734375 -7.046875 C 3.097656 -6.910156 3.453125 -6.585938 3.796875 -6.078125 L 3.921875 -5.890625 C 4.453125 -5.109375 4.644531 -4.410156 4.5 -3.796875 C 4.351562 -3.191406 3.960938 -2.675781 3.328125 -2.25 L 1.1875 -0.8125 C 1.039062 -0.707031 0.898438 -0.65625 0.765625 -0.65625 C 0.628906 -0.664062 0.523438 -0.722656 0.453125 -0.828125 Z M 1.125 -2.203125 L 2.453125 -3.09375 C 3.242188 -3.625 3.347656 -4.328125 2.765625 -5.203125 L 2.65625 -5.359375 C 2.351562 -5.816406 2.03125 -6.078125 1.6875 -6.140625 C 1.351562 -6.203125 0.992188 -6.101562 0.609375 -5.84375 L -0.71875 -4.953125 Z M -1.3125 -5.828125 L -0.046875 -6.671875 C 0.648438 -7.148438 0.753906 -7.753906 0.265625 -8.484375 C -0.191406 -9.148438 -0.78125 -9.238281 -1.5 -8.75 L -2.734375 -7.921875 Z M -1.3125 -5.828125 "/></g></g></g><g fill="rgb(0%, 0%, 0%)" fill-opacity="1"><g transform="translate(155.955569, 103.493703)"><g><path d="M 0.65625 -0.6875 L -1.96875 -8.6875 C -2.007812 -8.789062 -1.988281 -8.898438 -1.90625 -9.015625 C -1.820312 -9.128906 -1.703125 -9.210938 -1.546875 -9.265625 L 0.59375 -9.96875 C 1.414062 -10.238281 2.144531 -10.238281 2.78125 -9.96875 C 3.414062 -9.707031 3.890625 -9.109375 4.203125 -8.171875 L 5.328125 -4.734375 C 5.628906 -3.816406 5.601562 -3.054688 5.25 -2.453125 C 4.90625 -1.859375 4.320312 -1.425781 3.5 -1.15625 L 1.359375 -0.453125 C 1.203125 -0.398438 1.054688 -0.394531 0.921875 -0.4375 C 0.785156 -0.476562 0.695312 -0.5625 0.65625 -0.6875 Z M 1.703125 -1.8125 L 3.125 -2.28125 C 4.082031 -2.59375 4.390625 -3.269531 4.046875 -4.3125 L 2.921875 -7.75 C 2.578125 -8.789062 1.925781 -9.15625 0.96875 -8.84375 L -0.453125 -8.375 Z M 1.703125 -1.8125 "/></g></g></g><g fill="rgb(0%, 0%, 0%)" fill-opacity="1"><g transform="translate(170.094329, 99.48676)"><g><path d="M 0.765625 -0.5625 L -0.5625 -8.859375 C -0.582031 -8.992188 -0.539062 -9.109375 -0.4375 -9.203125 C -0.332031 -9.304688 -0.195312 -9.367188 -0.03125 -9.390625 L 4.421875 -10.109375 C 4.566406 -10.128906 4.6875 -10.085938 4.78125 -9.984375 C 4.875 -9.878906 4.929688 -9.75 4.953125 -9.59375 C 4.984375 -9.425781 4.96875 -9.28125 4.90625 -9.15625 C 4.84375 -9.03125 4.742188 -8.957031 4.609375 -8.9375 L 0.890625 -8.34375 L 1.34375 -5.46875 L 3.28125 -5.78125 C 3.414062 -5.800781 3.523438 -5.757812 3.609375 -5.65625 C 3.703125 -5.5625 3.757812 -5.441406 3.78125 -5.296875 C 3.800781 -5.160156 3.785156 -5.035156 3.734375 -4.921875 C 3.691406 -4.804688 3.597656 -4.738281 3.453125 -4.71875 L 1.515625 -4.40625 L 1.96875 -1.515625 L 5.6875 -2.109375 C 5.820312 -2.128906 5.941406 -2.085938 6.046875 -1.984375 C 6.148438 -1.878906 6.210938 -1.742188 6.234375 -1.578125 C 6.253906 -1.429688 6.234375 -1.289062 6.171875 -1.15625 C 6.117188 -1.03125 6.019531 -0.957031 5.875 -0.9375 L 1.421875 -0.21875 C 1.253906 -0.195312 1.109375 -0.210938 0.984375 -0.265625 C 0.859375 -0.328125 0.785156 -0.425781 0.765625 -0.5625 Z M 0.765625 -0.5625 "/></g></g></g><g fill="rgb(0%, 0%, 0%)" fill-opacity="1"><g transform="translate(184.064151, 97.843228)"><g><path d="M 0.1875 -8.734375 C 0.1875 -8.878906 0.273438 -9.003906 0.453125 -9.109375 C 0.628906 -9.222656 0.816406 -9.28125 1.015625 -9.28125 C 1.273438 -9.28125 1.429688 -9.1875 1.484375 -9 L 3.5625 -1.765625 L 5.671875 -8.984375 C 5.722656 -9.171875 5.875 -9.265625 6.125 -9.265625 C 6.332031 -9.265625 6.523438 -9.207031 6.703125 -9.09375 C 6.890625 -8.988281 6.984375 -8.863281 6.984375 -8.71875 C 6.984375 -8.6875 6.972656 -8.644531 6.953125 -8.59375 L 4.421875 -0.375 C 4.378906 -0.238281 4.273438 -0.128906 4.109375 -0.046875 C 3.953125 0.0351562 3.769531 0.078125 3.5625 0.078125 C 3.101562 0.078125 2.820312 -0.0703125 2.71875 -0.375 L 0.1875 -8.609375 C 0.1875 -8.640625 0.1875 -8.679688 0.1875 -8.734375 Z M 0.1875 -8.734375 "/></g></g></g><g fill="rgb(0%, 0%, 0%)" fill-opacity="1"><g transform="translate(198.597148, 98.480372)"><g><path d="M 0.890625 -0.296875 L 2.25 -8.59375 C 2.269531 -8.71875 2.34375 -8.8125 2.46875 -8.875 C 2.59375 -8.9375 2.738281 -8.953125 2.90625 -8.921875 L 7.359375 -8.203125 C 7.503906 -8.179688 7.609375 -8.109375 7.671875 -7.984375 C 7.734375 -7.859375 7.75 -7.71875 7.71875 -7.5625 C 7.695312 -7.394531 7.632812 -7.257812 7.53125 -7.15625 C 7.425781 -7.050781 7.304688 -7.007812 7.171875 -7.03125 L 3.453125 -7.640625 L 2.984375 -4.78125 L 4.921875 -4.453125 C 5.046875 -4.429688 5.140625 -4.359375 5.203125 -4.234375 C 5.265625 -4.117188 5.285156 -3.988281 5.265625 -3.84375 C 5.242188 -3.707031 5.1875 -3.59375 5.09375 -3.5 C 5 -3.40625 4.882812 -3.367188 4.75 -3.390625 L 2.8125 -3.71875 L 2.34375 -0.828125 L 6.0625 -0.21875 C 6.195312 -0.195312 6.296875 -0.125 6.359375 0 C 6.429688 0.132812 6.453125 0.285156 6.421875 0.453125 C 6.398438 0.597656 6.335938 0.722656 6.234375 0.828125 C 6.140625 0.929688 6.019531 0.972656 5.875 0.953125 L 1.421875 0.234375 C 1.253906 0.203125 1.117188 0.140625 1.015625 0.046875 C 0.910156 -0.046875 0.867188 -0.160156 0.890625 -0.296875 Z M 0.890625 -0.296875 "/></g></g></g><g fill="rgb(0%, 0%, 0%)" fill-opacity="1"><g transform="translate(212.395426, 101.329554)"><g><path d="M 0.9375 -0.15625 L 3.546875 -8.15625 C 3.585938 -8.28125 3.679688 -8.359375 3.828125 -8.390625 C 3.972656 -8.421875 4.132812 -8.40625 4.3125 -8.34375 C 4.488281 -8.289062 4.628906 -8.207031 4.734375 -8.09375 C 4.835938 -7.988281 4.867188 -7.875 4.828125 -7.75 L 2.453125 -0.453125 L 5.59375 0.578125 C 5.707031 0.617188 5.78125 0.703125 5.8125 0.828125 C 5.84375 0.960938 5.832031 1.101562 5.78125 1.25 C 5.726562 1.40625 5.648438 1.53125 5.546875 1.625 C 5.441406 1.71875 5.332031 1.742188 5.21875 1.703125 L 1.359375 0.453125 C 1.203125 0.398438 1.082031 0.316406 1 0.203125 C 0.914062 0.0976562 0.894531 -0.0195312 0.9375 -0.15625 Z M 0.9375 -0.15625 "/></g></g></g><g fill="rgb(0%, 0%, 0%)" fill-opacity="1"><g transform="translate(225.04786, 106.02472)"><g><path d="M 1.921875 -2.109375 L 3.609375 -5.40625 C 4.054688 -6.28125 4.609375 -6.800781 5.265625 -6.96875 C 5.929688 -7.132812 6.648438 -7.019531 7.421875 -6.625 C 8.191406 -6.238281 8.707031 -5.722656 8.96875 -5.078125 C 9.226562 -4.441406 9.132812 -3.6875 8.6875 -2.8125 L 7 0.484375 C 6.5625 1.347656 6.003906 1.863281 5.328125 2.03125 C 4.660156 2.195312 3.941406 2.082031 3.171875 1.6875 C 2.398438 1.300781 1.890625 0.785156 1.640625 0.140625 C 1.390625 -0.492188 1.484375 -1.242188 1.921875 -2.109375 Z M 3.109375 -1.5 C 2.617188 -0.53125 2.820312 0.179688 3.71875 0.640625 C 4.144531 0.859375 4.535156 0.90625 4.890625 0.78125 C 5.242188 0.664062 5.546875 0.363281 5.796875 -0.125 L 7.484375 -3.421875 C 7.734375 -3.910156 7.800781 -4.332031 7.6875 -4.6875 C 7.582031 -5.050781 7.316406 -5.34375 6.890625 -5.5625 C 5.992188 -6.019531 5.296875 -5.765625 4.796875 -4.796875 Z M 3.109375 -1.5 "/></g></g></g><g fill="rgb(0%, 0%, 0%)" fill-opacity="1"><g transform="translate(237.764405, 113.20277)"><g><path d="M 0.953125 0.140625 L 5.9375 -6.640625 C 6 -6.734375 6.09375 -6.785156 6.21875 -6.796875 C 6.34375 -6.804688 6.46875 -6.765625 6.59375 -6.671875 L 8.59375 -5.203125 C 9.28125 -4.703125 9.691406 -4.117188 9.828125 -3.453125 C 9.972656 -2.796875 9.757812 -2.078125 9.1875 -1.296875 L 9.125 -1.234375 C 8.550781 -0.453125 7.921875 -0.0351562 7.234375 0.015625 C 6.546875 0.078125 5.851562 -0.144531 5.15625 -0.65625 L 3.890625 -1.59375 L 2.03125 0.9375 C 1.945312 1.050781 1.828125 1.097656 1.671875 1.078125 C 1.523438 1.066406 1.375 1.003906 1.21875 0.890625 C 1.070312 0.785156 0.96875 0.660156 0.90625 0.515625 C 0.851562 0.378906 0.867188 0.253906 0.953125 0.140625 Z M 4.515625 -2.453125 L 5.78125 -1.515625 C 6.164062 -1.234375 6.546875 -1.125 6.921875 -1.1875 C 7.296875 -1.25 7.648438 -1.503906 7.984375 -1.953125 L 8.078125 -2.078125 C 8.398438 -2.523438 8.535156 -2.929688 8.484375 -3.296875 C 8.429688 -3.671875 8.210938 -4 7.828125 -4.28125 L 6.5625 -5.21875 Z M 4.515625 -2.453125 "/></g></g></g><g fill="rgb(0%, 0%, 0%)" fill-opacity="1"><g transform="translate(248.961801, 122.176372)"><g><path d="M 0.90625 0.28125 L 6.890625 -5.609375 C 6.984375 -5.710938 7.097656 -5.75 7.234375 -5.71875 C 7.367188 -5.6875 7.5 -5.613281 7.625 -5.5 L 10.796875 -2.28125 C 10.890625 -2.175781 10.921875 -2.054688 10.890625 -1.921875 C 10.867188 -1.785156 10.804688 -1.660156 10.703125 -1.546875 C 10.578125 -1.429688 10.441406 -1.363281 10.296875 -1.34375 C 10.160156 -1.320312 10.046875 -1.359375 9.953125 -1.453125 L 7.296875 -4.125 L 5.21875 -2.078125 L 6.59375 -0.6875 C 6.6875 -0.59375 6.722656 -0.476562 6.703125 -0.34375 C 6.679688 -0.207031 6.617188 -0.09375 6.515625 0 C 6.421875 0.101562 6.304688 0.164062 6.171875 0.1875 C 6.046875 0.207031 5.929688 0.164062 5.828125 0.0625 L 4.453125 -1.328125 L 2.375 0.734375 L 5.03125 3.40625 C 5.125 3.5 5.15625 3.613281 5.125 3.75 C 5.101562 3.894531 5.03125 4.03125 4.90625 4.15625 C 4.800781 4.257812 4.675781 4.320312 4.53125 4.34375 C 4.394531 4.375 4.28125 4.335938 4.1875 4.234375 L 1.015625 1.015625 C 0.890625 0.898438 0.816406 0.769531 0.796875 0.625 C 0.773438 0.488281 0.8125 0.375 0.90625 0.28125 Z M 0.90625 0.28125 "/></g></g></g><g fill="rgb(0%, 0%, 0%)" fill-opacity="1"><g transform="translate(258.424804, 132.58293)"><g><path d="M 0.84375 0.4375 L 7.703125 -4.453125 C 7.796875 -4.515625 7.898438 -4.535156 8.015625 -4.515625 C 8.140625 -4.503906 8.238281 -4.445312 8.3125 -4.34375 L 9.71875 -2.375 C 10.84375 -0.789062 10.703125 0.503906 9.296875 1.515625 C 8.703125 1.929688 8.144531 2.128906 7.625 2.109375 C 7.101562 2.085938 6.625 1.890625 6.1875 1.515625 L 4.515625 4.890625 C 4.484375 4.953125 4.4375 5.003906 4.375 5.046875 C 4.238281 5.140625 4.0625 5.15625 3.84375 5.09375 C 3.632812 5.039062 3.472656 4.9375 3.359375 4.78125 C 3.234375 4.59375 3.238281 4.375 3.375 4.125 L 5.25 0.5 L 4.515625 -0.546875 L 1.625 1.515625 C 1.507812 1.585938 1.378906 1.59375 1.234375 1.53125 C 1.097656 1.476562 0.976562 1.375 0.875 1.21875 C 0.769531 1.070312 0.707031 0.921875 0.6875 0.765625 C 0.675781 0.617188 0.726562 0.507812 0.84375 0.4375 Z M 5.390625 -1.171875 L 6.28125 0.078125 C 6.882812 0.921875 7.597656 1.046875 8.421875 0.453125 C 9.242188 -0.128906 9.351562 -0.84375 8.75 -1.6875 L 7.859375 -2.9375 Z M 5.390625 -1.171875 "/></g></g></g><g clip-path="url(#id24)"><path fill="rgb(0%, 0%, 0%)" d="M 198.570312 146.195312 L 176.285156 146.195312 C 176.046875 146.195312 175.847656 146.113281 175.679688 145.945312 C 175.511719 145.777344 175.429688 145.578125 175.429688 145.339844 L 175.429688 129.054688 C 175.429688 128.816406 175.511719 128.617188 175.679688 128.449219 C 175.847656 128.28125 176.046875 128.195312 176.285156 128.195312 L 198.570312 128.195312 C 198.808594 128.195312 199.007812 128.28125 199.175781 128.449219 C 199.34375 128.617188 199.429688 128.816406 199.429688 129.054688 L 199.429688 145.339844 C 199.429688 145.578125 199.34375 145.777344 199.175781 145.945312 C 199.007812 146.113281 198.808594 146.195312 198.570312 146.195312 Z M 177.140625 144.484375 L 197.714844 144.484375 L 197.714844 129.910156 L 177.140625 129.910156 Z M 177.140625 144.484375 " fill-opacity="1" fill-rule="nonzero"/></g><path fill="rgb(0%, 0%, 0%)" d="M 189.140625 149.625 L 185.714844 149.625 C 185.476562 149.625 185.273438 149.542969 185.109375 149.375 C 184.941406 149.207031 184.855469 149.003906 184.855469 148.769531 L 184.855469 145.339844 C 184.855469 145.101562 184.941406 144.902344 185.109375 144.734375 C 185.273438 144.566406 185.476562 144.484375 185.714844 144.484375 L 189.140625 144.484375 C 189.378906 144.484375 189.582031 144.566406 189.75 144.734375 C 189.914062 144.902344 190 145.101562 190 145.339844 L 190 148.769531 C 190 149.003906 189.914062 149.207031 189.75 149.375 C 189.582031 149.542969 189.378906 149.625 189.140625 149.625 Z M 186.570312 147.910156 L 188.285156 147.910156 L 188.285156 146.195312 L 186.570312 146.195312 Z M 186.570312 147.910156 " fill-opacity="1" fill-rule="nonzero"/><g clip-path="url(#id25)"><path fill="rgb(0%, 0%, 0%)" d="M 193.429688 152.195312 L 181.429688 152.195312 C 181.191406 152.195312 180.988281 152.113281 180.820312 151.945312 C 180.65625 151.777344 180.570312 151.578125 180.570312 151.339844 C 180.570312 150.886719 180.65625 150.449219 180.832031 150.027344 C 181.007812 149.609375 181.253906 149.238281 181.574219 148.914062 C 181.898438 148.59375 182.265625 148.347656 182.6875 148.171875 C 183.109375 148 183.542969 147.910156 184 147.910156 L 190.855469 147.910156 C 191.3125 147.910156 191.75 148 192.167969 148.171875 C 192.589844 148.347656 192.960938 148.59375 193.28125 148.914062 C 193.601562 149.238281 193.851562 149.609375 194.023438 150.027344 C 194.199219 150.449219 194.285156 150.886719 194.285156 151.339844 C 194.285156 151.578125 194.203125 151.777344 194.035156 151.945312 C 193.867188 152.113281 193.664062 152.195312 193.429688 152.195312 Z M 182.515625 150.484375 L 192.339844 150.484375 C 192.1875 150.21875 191.976562 150.007812 191.714844 149.855469 C 191.449219 149.703125 191.164062 149.625 190.855469 149.625 L 184 149.625 C 183.695312 149.625 183.40625 149.703125 183.144531 149.855469 C 182.878906 150.007812 182.667969 150.21875 182.515625 150.484375 Z M 182.515625 150.484375 " fill-opacity="1" fill-rule="nonzero"/></g><path fill="rgb(0%, 0%, 0%)" d="M 184 138.484375 C 183.761719 138.484375 183.5625 138.398438 183.394531 138.230469 L 181.679688 136.515625 C 181.511719 136.351562 181.429688 136.148438 181.429688 135.910156 C 181.429688 135.675781 181.511719 135.472656 181.679688 135.304688 L 183.394531 133.589844 C 183.5625 133.429688 183.761719 133.347656 183.996094 133.351562 C 184.230469 133.351562 184.429688 133.4375 184.59375 133.601562 C 184.761719 133.765625 184.84375 133.964844 184.847656 134.199219 C 184.847656 134.433594 184.769531 134.636719 184.605469 134.804688 L 183.496094 135.910156 L 184.605469 137.019531 C 184.875 137.289062 184.9375 137.601562 184.792969 137.953125 C 184.644531 138.304688 184.382812 138.484375 184 138.484375 Z M 184 138.484375 " fill-opacity="1" fill-rule="nonzero"/><path fill="rgb(0%, 0%, 0%)" d="M 190.855469 138.484375 C 190.476562 138.484375 190.210938 138.304688 190.066406 137.953125 C 189.917969 137.601562 189.980469 137.289062 190.25 137.019531 L 191.359375 135.910156 L 190.25 134.804688 C 190.089844 134.636719 190.007812 134.433594 190.011719 134.199219 C 190.011719 133.964844 190.097656 133.765625 190.261719 133.601562 C 190.425781 133.4375 190.625 133.351562 190.859375 133.351562 C 191.09375 133.347656 191.292969 133.429688 191.460938 133.589844 L 193.175781 135.304688 C 193.34375 135.472656 193.429688 135.675781 193.429688 135.910156 C 193.429688 136.148438 193.34375 136.351562 193.175781 136.515625 L 191.460938 138.230469 C 191.296875 138.398438 191.09375 138.484375 190.855469 138.484375 Z M 190.855469 138.484375 " fill-opacity="1" fill-rule="nonzero"/><path fill="rgb(0%, 0%, 0%)" d="M 186.570312 138.484375 C 186.421875 138.484375 186.285156 138.445312 186.152344 138.375 C 186.023438 138.300781 185.921875 138.203125 185.84375 138.078125 C 185.765625 137.949219 185.722656 137.8125 185.714844 137.664062 C 185.707031 137.515625 185.738281 137.375 185.804688 137.242188 L 187.519531 133.8125 C 187.625 133.601562 187.789062 133.457031 188.015625 133.382812 C 188.238281 133.308594 188.457031 133.324219 188.667969 133.429688 C 188.882812 133.535156 189.023438 133.699219 189.097656 133.925781 C 189.175781 134.148438 189.160156 134.367188 189.054688 134.582031 L 187.339844 138.007812 C 187.179688 138.324219 186.925781 138.484375 186.570312 138.484375 Z M 186.570312 138.484375 " fill-opacity="1" fill-rule="nonzero"/><g clip-path="url(#id26)"><path fill="rgb(0%, 0%, 0%)" d="M 198.570312 143.625 L 176.285156 143.625 C 176.046875 143.625 175.847656 143.542969 175.679688 143.375 C 175.511719 143.207031 175.429688 143.003906 175.429688 142.769531 C 175.429688 142.53125 175.511719 142.328125 175.679688 142.164062 C 175.847656 141.996094 176.046875 141.910156 176.285156 141.910156 L 198.570312 141.910156 C 198.808594 141.910156 199.007812 141.996094 199.175781 142.164062 C 199.34375 142.328125 199.429688 142.53125 199.429688 142.769531 C 199.429688 143.003906 199.34375 143.207031 199.175781 143.375 C 199.007812 143.542969 198.808594 143.625 198.570312 143.625 Z M 198.570312 143.625 " fill-opacity="1" fill-rule="nonzero"/></g><g fill="rgb(0%, 0%, 0%)" fill-opacity="1"><g transform="translate(118.550533, 259.650129)"><g><path d="M 0.921875 0.25 L 6.609375 -5.9375 C 6.703125 -6.03125 6.816406 -6.066406 6.953125 -6.046875 C 7.085938 -6.035156 7.21875 -5.972656 7.34375 -5.859375 L 10.625 -2.84375 C 10.726562 -2.738281 10.765625 -2.617188 10.734375 -2.484375 C 10.710938 -2.359375 10.648438 -2.238281 10.546875 -2.125 C 10.429688 -2 10.304688 -1.914062 10.171875 -1.875 C 10.035156 -1.84375 9.921875 -1.875 9.828125 -1.96875 L 7.09375 -4.46875 L 5.125 -2.328125 L 6.578125 -1 C 6.671875 -0.90625 6.707031 -0.796875 6.6875 -0.671875 C 6.664062 -0.546875 6.609375 -0.429688 6.515625 -0.328125 C 6.421875 -0.222656 6.3125 -0.15625 6.1875 -0.125 C 6.0625 -0.09375 5.945312 -0.125 5.84375 -0.21875 L 4.390625 -1.546875 L 1.90625 1.15625 C 1.8125 1.257812 1.691406 1.296875 1.546875 1.265625 C 1.398438 1.234375 1.253906 1.15625 1.109375 1.03125 C 0.984375 0.90625 0.894531 0.769531 0.84375 0.625 C 0.800781 0.476562 0.828125 0.351562 0.921875 0.25 Z M 0.921875 0.25 "/></g></g></g><g fill="rgb(0%, 0%, 0%)" fill-opacity="1"><g transform="translate(130.210997, 269.460978)"><g><path d="M 2.1875 -1.859375 L 5.546875 -6.953125 C 5.628906 -7.066406 5.738281 -7.117188 5.875 -7.109375 C 6.019531 -7.097656 6.171875 -7.039062 6.328125 -6.9375 C 6.484375 -6.832031 6.597656 -6.710938 6.671875 -6.578125 C 6.742188 -6.453125 6.738281 -6.332031 6.65625 -6.21875 L 3.296875 -1.125 C 2.992188 -0.664062 2.882812 -0.25 2.96875 0.125 C 3.050781 0.5 3.300781 0.828125 3.71875 1.109375 C 4.582031 1.679688 5.3125 1.515625 5.90625 0.609375 L 9.265625 -4.484375 C 9.347656 -4.597656 9.460938 -4.648438 9.609375 -4.640625 C 9.753906 -4.640625 9.90625 -4.585938 10.0625 -4.484375 C 10.21875 -4.378906 10.332031 -4.257812 10.40625 -4.125 C 10.476562 -3.988281 10.472656 -3.863281 10.390625 -3.75 L 7.03125 1.34375 C 6.5 2.15625 5.882812 2.601562 5.1875 2.6875 C 4.488281 2.78125 3.773438 2.585938 3.046875 2.109375 C 2.316406 1.617188 1.859375 1.035156 1.671875 0.359375 C 1.484375 -0.304688 1.65625 -1.046875 2.1875 -1.859375 Z M 2.1875 -1.859375 "/></g></g></g><g fill="rgb(0%, 0%, 0%)" fill-opacity="1"><g transform="translate(144.17631, 277.781312)"><g><path d="M 0.953125 -0.0625 L 4.421875 -7.71875 C 4.472656 -7.84375 4.570312 -7.910156 4.71875 -7.921875 C 4.875 -7.929688 5.035156 -7.898438 5.203125 -7.828125 C 5.378906 -7.753906 5.507812 -7.65625 5.59375 -7.53125 C 5.6875 -7.40625 5.707031 -7.28125 5.65625 -7.15625 L 2.484375 -0.171875 L 5.484375 1.1875 C 5.597656 1.238281 5.660156 1.332031 5.671875 1.46875 C 5.691406 1.601562 5.664062 1.742188 5.59375 1.890625 C 5.53125 2.035156 5.441406 2.144531 5.328125 2.21875 C 5.222656 2.300781 5.113281 2.316406 5 2.265625 L 1.3125 0.59375 C 1.15625 0.519531 1.039062 0.421875 0.96875 0.296875 C 0.894531 0.179688 0.890625 0.0625 0.953125 -0.0625 Z M 0.953125 -0.0625 "/></g></g></g><g fill="rgb(0%, 0%, 0%)" fill-opacity="1"><g transform="translate(157.989948, 283.312252)"><g><path d="M 0.9375 -0.1875 L 3.21875 -8.296875 C 3.25 -8.421875 3.335938 -8.503906 3.484375 -8.546875 C 3.628906 -8.585938 3.789062 -8.582031 3.96875 -8.53125 C 4.15625 -8.476562 4.300781 -8.394531 4.40625 -8.28125 C 4.507812 -8.175781 4.546875 -8.0625 4.515625 -7.9375 L 2.4375 -0.546875 L 5.609375 0.34375 C 5.722656 0.375 5.800781 0.453125 5.84375 0.578125 C 5.882812 0.710938 5.878906 0.859375 5.828125 1.015625 C 5.785156 1.171875 5.710938 1.296875 5.609375 1.390625 C 5.503906 1.484375 5.394531 1.515625 5.28125 1.484375 L 1.390625 0.390625 C 1.222656 0.347656 1.09375 0.273438 1 0.171875 C 0.914062 0.0664062 0.894531 -0.0507812 0.9375 -0.1875 Z M 0.9375 -0.1875 "/></g></g></g><g fill="rgb(0%, 0%, 0%)" fill-opacity="1"><g transform="translate(183.634217, 287.805296)"><g><path d="M 0.390625 -1.390625 C 0.390625 -1.554688 0.445312 -1.71875 0.5625 -1.875 C 0.675781 -2.039062 0.8125 -2.125 0.96875 -2.125 C 1.0625 -2.113281 1.171875 -2.050781 1.296875 -1.9375 C 1.429688 -1.832031 1.5625 -1.71875 1.6875 -1.59375 C 1.820312 -1.476562 2.015625 -1.367188 2.265625 -1.265625 C 2.523438 -1.160156 2.816406 -1.101562 3.140625 -1.09375 C 3.617188 -1.09375 4.003906 -1.203125 4.296875 -1.421875 C 4.585938 -1.648438 4.734375 -1.988281 4.734375 -2.4375 C 4.742188 -2.84375 4.609375 -3.179688 4.328125 -3.453125 C 4.046875 -3.722656 3.703125 -3.941406 3.296875 -4.109375 C 2.898438 -4.273438 2.5 -4.445312 2.09375 -4.625 C 1.695312 -4.8125 1.351562 -5.09375 1.0625 -5.46875 C 0.78125 -5.851562 0.644531 -6.328125 0.65625 -6.890625 C 0.65625 -7.335938 0.742188 -7.722656 0.921875 -8.046875 C 1.097656 -8.367188 1.332031 -8.617188 1.625 -8.796875 C 1.925781 -8.972656 2.238281 -9.097656 2.5625 -9.171875 C 2.894531 -9.253906 3.242188 -9.296875 3.609375 -9.296875 C 3.835938 -9.296875 4.078125 -9.28125 4.328125 -9.25 C 4.578125 -9.21875 4.820312 -9.164062 5.0625 -9.09375 C 5.3125 -9.019531 5.515625 -8.921875 5.671875 -8.796875 C 5.828125 -8.671875 5.90625 -8.523438 5.90625 -8.359375 C 5.90625 -8.203125 5.851562 -8.039062 5.75 -7.875 C 5.644531 -7.71875 5.507812 -7.640625 5.34375 -7.640625 C 5.257812 -7.640625 5.144531 -7.679688 5 -7.765625 C 4.851562 -7.847656 4.660156 -7.929688 4.421875 -8.015625 C 4.179688 -8.097656 3.90625 -8.140625 3.59375 -8.140625 C 3.113281 -8.148438 2.726562 -8.054688 2.4375 -7.859375 C 2.144531 -7.671875 2 -7.382812 2 -7 C 1.988281 -6.738281 2.0625 -6.515625 2.21875 -6.328125 C 2.375 -6.148438 2.570312 -6 2.8125 -5.875 C 3.050781 -5.757812 3.316406 -5.644531 3.609375 -5.53125 C 3.910156 -5.414062 4.207031 -5.28125 4.5 -5.125 C 4.789062 -4.96875 5.050781 -4.785156 5.28125 -4.578125 C 5.519531 -4.378906 5.71875 -4.109375 5.875 -3.765625 C 6.03125 -3.421875 6.101562 -3.019531 6.09375 -2.5625 C 6.09375 -1.675781 5.820312 -1.003906 5.28125 -0.546875 C 4.75 -0.0859375 4.046875 0.140625 3.171875 0.140625 C 2.390625 0.128906 1.726562 -0.0390625 1.1875 -0.375 C 0.644531 -0.707031 0.378906 -1.046875 0.390625 -1.390625 Z M 0.390625 -1.390625 "/></g></g></g><g fill="rgb(0%, 0%, 0%)" fill-opacity="1"><g transform="translate(198.969709, 287.239702)"><g><path d="M -1.109375 -8.609375 C -1.128906 -8.773438 -1.109375 -8.921875 -1.046875 -9.046875 C -0.984375 -9.179688 -0.878906 -9.257812 -0.734375 -9.28125 L 4.46875 -10.046875 C 4.613281 -10.078125 4.734375 -10.039062 4.828125 -9.9375 C 4.921875 -9.832031 4.976562 -9.695312 5 -9.53125 C 5.03125 -9.351562 5.007812 -9.191406 4.9375 -9.046875 C 4.875 -8.910156 4.773438 -8.832031 4.640625 -8.8125 L 2.703125 -8.53125 L 3.828125 -1.015625 C 3.847656 -0.878906 3.796875 -0.757812 3.671875 -0.65625 C 3.554688 -0.5625 3.410156 -0.503906 3.234375 -0.484375 C 3.046875 -0.453125 2.878906 -0.460938 2.734375 -0.515625 C 2.597656 -0.578125 2.519531 -0.675781 2.5 -0.8125 L 1.375 -8.328125 L -0.5625 -8.046875 C -0.695312 -8.023438 -0.8125 -8.070312 -0.90625 -8.1875 C -1.007812 -8.300781 -1.078125 -8.441406 -1.109375 -8.609375 Z M -1.109375 -8.609375 "/></g></g></g><g fill="rgb(0%, 0%, 0%)" fill-opacity="1"><g transform="translate(214.062405, 284.306952)"><g><path d="M -0.015625 -0.578125 C -0.0234375 -0.628906 -0.03125 -0.671875 -0.03125 -0.703125 L -0.09375 -9.3125 C -0.09375 -9.632812 0.125 -9.863281 0.5625 -10 C 1.019531 -10.144531 1.347656 -10.085938 1.546875 -9.828125 L 6.421875 -2.734375 C 6.453125 -2.691406 6.46875 -2.660156 6.46875 -2.640625 C 6.519531 -2.492188 6.472656 -2.335938 6.328125 -2.171875 C 6.191406 -2.015625 6.03125 -1.90625 5.84375 -1.84375 C 5.601562 -1.769531 5.429688 -1.816406 5.328125 -1.984375 L 4.28125 -3.53125 L 1.28125 -2.59375 L 1.34375 -0.71875 C 1.332031 -0.519531 1.207031 -0.382812 0.96875 -0.3125 C 0.78125 -0.25 0.582031 -0.238281 0.375 -0.28125 C 0.164062 -0.332031 0.0351562 -0.429688 -0.015625 -0.578125 Z M 1.234375 -3.703125 L 3.671875 -4.484375 L 1.125 -8.25 Z M 1.234375 -3.703125 "/></g></g></g><g fill="rgb(0%, 0%, 0%)" fill-opacity="1"><g transform="translate(229.085589, 278.790154)"><g><path d="M -0.5625 -2.796875 L -2.234375 -6.109375 C -2.679688 -6.984375 -2.773438 -7.738281 -2.515625 -8.375 C -2.253906 -9.007812 -1.75 -9.515625 -1 -9.890625 C -0.226562 -10.273438 0.488281 -10.394531 1.15625 -10.25 C 1.820312 -10.113281 2.3125 -9.742188 2.625 -9.140625 C 2.738281 -8.898438 2.769531 -8.710938 2.71875 -8.578125 C 2.675781 -8.441406 2.546875 -8.320312 2.328125 -8.21875 C 1.941406 -8.019531 1.675781 -8.050781 1.53125 -8.3125 C 1.0625 -9.09375 0.410156 -9.273438 -0.421875 -8.859375 C -1.328125 -8.390625 -1.53125 -7.671875 -1.03125 -6.703125 L 0.640625 -3.390625 C 1.128906 -2.421875 1.832031 -2.171875 2.75 -2.640625 C 3.03125 -2.785156 3.238281 -2.941406 3.375 -3.109375 C 3.519531 -3.273438 3.59375 -3.453125 3.59375 -3.640625 C 3.59375 -3.835938 3.578125 -4 3.546875 -4.125 C 3.515625 -4.257812 3.472656 -4.40625 3.421875 -4.5625 C 3.296875 -4.84375 3.414062 -5.078125 3.78125 -5.265625 C 4.007812 -5.378906 4.191406 -5.414062 4.328125 -5.375 C 4.472656 -5.332031 4.609375 -5.191406 4.734375 -4.953125 C 5.046875 -4.328125 5.0625 -3.695312 4.78125 -3.0625 C 4.507812 -2.4375 3.988281 -1.929688 3.21875 -1.546875 C 2.457031 -1.160156 1.742188 -1.054688 1.078125 -1.234375 C 0.421875 -1.410156 -0.125 -1.929688 -0.5625 -2.796875 Z M -0.5625 -2.796875 "/></g></g></g><g fill="rgb(0%, 0%, 0%)" fill-opacity="1"><g transform="translate(242.795611, 271.075329)"><g><path d="M 0.4375 -0.859375 L -4.515625 -7.671875 C -4.585938 -7.785156 -4.59375 -7.90625 -4.53125 -8.03125 C -4.476562 -8.164062 -4.375 -8.285156 -4.21875 -8.390625 C -4.070312 -8.503906 -3.921875 -8.570312 -3.765625 -8.59375 C -3.617188 -8.613281 -3.507812 -8.566406 -3.4375 -8.453125 L -1.171875 -5.328125 L -1.0625 -10.453125 C -1.070312 -10.609375 -1.003906 -10.738281 -0.859375 -10.84375 C -0.710938 -10.945312 -0.523438 -10.988281 -0.296875 -10.96875 C -0.078125 -10.945312 0.078125 -10.867188 0.171875 -10.734375 C 0.234375 -10.648438 0.257812 -10.5625 0.25 -10.46875 L 0.0625 -6.5625 L 5 -4.6875 C 5.082031 -4.65625 5.148438 -4.601562 5.203125 -4.53125 C 5.296875 -4.394531 5.3125 -4.222656 5.25 -4.015625 C 5.195312 -3.804688 5.09375 -3.644531 4.9375 -3.53125 C 4.769531 -3.414062 4.597656 -3.394531 4.421875 -3.46875 L 0 -5.125 L -0.046875 -3.78125 L 1.515625 -1.640625 C 1.585938 -1.523438 1.59375 -1.394531 1.53125 -1.25 C 1.476562 -1.113281 1.378906 -0.992188 1.234375 -0.890625 C 1.085938 -0.785156 0.9375 -0.722656 0.78125 -0.703125 C 0.625 -0.691406 0.507812 -0.742188 0.4375 -0.859375 Z M 0.4375 -0.859375 "/></g></g></g><g fill="rgb(0%, 0%, 0%)" fill-opacity="1"><g transform="translate(254.99458, 261.315865)"><g/></g></g><g fill="rgb(0%, 0%, 0%)" fill-opacity="1"><g transform="translate(40.600721, 196.528552)"><g><path d="M 10.34375 0.390625 C 10.113281 0.390625 9.96875 0.285156 9.90625 0.078125 L 2.484375 -17.890625 C 2.398438 -18.097656 2.289062 -18.273438 2.15625 -18.421875 C 2.019531 -18.566406 1.878906 -18.6875 1.734375 -18.78125 C 1.585938 -18.882812 1.445312 -18.960938 1.3125 -19.015625 C 1.1875 -19.066406 1.082031 -19.101562 1 -19.125 C 0.925781 -19.144531 0.847656 -19.160156 0.765625 -19.171875 C 0.679688 -19.191406 0.597656 -19.207031 0.515625 -19.21875 C 0.429688 -19.238281 0.359375 -19.253906 0.296875 -19.265625 C 0.234375 -19.273438 0.195312 -19.28125 0.1875 -19.28125 C 0.113281 -19.28125 0.078125 -19.316406 0.078125 -19.390625 L 0.078125 -19.953125 C 0.078125 -20.023438 0.113281 -20.0625 0.1875 -20.0625 L 9.859375 -20.0625 C 9.921875 -20.0625 9.953125 -20.046875 9.953125 -20.015625 C 9.960938 -19.992188 9.96875 -19.972656 9.96875 -19.953125 L 9.96875 -19.390625 C 9.96875 -19.367188 9.960938 -19.34375 9.953125 -19.3125 C 9.941406 -19.289062 9.910156 -19.28125 9.859375 -19.28125 L 9.640625 -19.28125 C 9.410156 -19.238281 9.144531 -19.195312 8.84375 -19.15625 C 8.539062 -19.125 8.257812 -19.054688 8 -18.953125 C 7.738281 -18.859375 7.519531 -18.710938 7.34375 -18.515625 C 7.175781 -18.328125 7.09375 -18.0625 7.09375 -17.71875 C 7.09375 -17.59375 7.113281 -17.445312 7.15625 -17.28125 C 7.195312 -17.125 7.238281 -16.992188 7.28125 -16.890625 L 12.359375 -4.5625 C 12.367188 -4.539062 12.378906 -4.519531 12.390625 -4.5 C 12.410156 -4.488281 12.429688 -4.472656 12.453125 -4.453125 C 12.472656 -4.429688 12.488281 -4.421875 12.5 -4.421875 C 12.570312 -4.421875 12.625 -4.472656 12.65625 -4.578125 L 17.328125 -17.1875 C 17.367188 -17.289062 17.410156 -17.382812 17.453125 -17.46875 C 17.492188 -17.5625 17.515625 -17.65625 17.515625 -17.75 C 17.515625 -18.082031 17.40625 -18.367188 17.1875 -18.609375 C 16.96875 -18.859375 16.664062 -19.015625 16.28125 -19.078125 C 16.21875 -19.085938 16.125 -19.101562 16 -19.125 C 15.875 -19.144531 15.738281 -19.164062 15.59375 -19.1875 C 15.445312 -19.207031 15.304688 -19.226562 15.171875 -19.25 C 15.046875 -19.269531 14.953125 -19.28125 14.890625 -19.28125 C 14.816406 -19.28125 14.78125 -19.316406 14.78125 -19.390625 L 14.78125 -19.953125 C 14.78125 -19.972656 14.785156 -19.992188 14.796875 -20.015625 C 14.804688 -20.046875 14.835938 -20.0625 14.890625 -20.0625 L 22.515625 -20.0625 C 22.566406 -20.0625 22.597656 -20.046875 22.609375 -20.015625 C 22.617188 -19.992188 22.625 -19.972656 22.625 -19.953125 L 22.625 -19.390625 C 22.625 -19.359375 22.617188 -19.332031 22.609375 -19.3125 C 22.597656 -19.289062 22.566406 -19.28125 22.515625 -19.28125 L 21.984375 -19.28125 C 21.460938 -19.175781 21.03125 -18.972656 20.6875 -18.671875 C 20.351562 -18.378906 20.070312 -18.03125 19.84375 -17.625 C 19.613281 -17.21875 19.414062 -16.785156 19.25 -16.328125 C 19.09375 -15.867188 18.929688 -15.425781 18.765625 -15 L 13.265625 -0.109375 C 13.179688 0.117188 13.078125 0.257812 12.953125 0.3125 C 12.828125 0.363281 12.65625 0.390625 12.4375 0.390625 Z M 10.34375 0.390625 "/></g></g></g><g fill="rgb(0%, 0%, 0%)" fill-opacity="1"><g transform="translate(64.659113, 196.528552)"><g><path d="M 0.6875 0 C 0.632812 0 0.597656 -0.0078125 0.578125 -0.03125 C 0.566406 -0.0625 0.5625 -0.0859375 0.5625 -0.109375 L 0.5625 -0.875 C 0.5625 -0.894531 0.566406 -0.921875 0.578125 -0.953125 C 0.585938 -0.984375 0.625 -1 0.6875 -1 L 1.03125 -1 C 1.050781 -1 1.140625 -1.003906 1.296875 -1.015625 C 1.453125 -1.023438 1.632812 -1.046875 1.84375 -1.078125 C 2.050781 -1.117188 2.257812 -1.164062 2.46875 -1.21875 C 2.6875 -1.28125 2.875 -1.351562 3.03125 -1.4375 C 3.363281 -1.625 3.609375 -1.867188 3.765625 -2.171875 C 3.929688 -2.472656 4.015625 -2.804688 4.015625 -3.171875 L 4.015625 -17.375 C 4.015625 -17.71875 3.898438 -18 3.671875 -18.21875 C 3.453125 -18.4375 3.1875 -18.609375 2.875 -18.734375 C 2.570312 -18.859375 2.257812 -18.941406 1.9375 -18.984375 C 1.625 -19.035156 1.375 -19.0625 1.1875 -19.0625 L 0.875 -19.0625 C 0.820312 -19.0625 0.785156 -19.078125 0.765625 -19.109375 C 0.753906 -19.148438 0.75 -19.175781 0.75 -19.1875 L 0.75 -19.953125 C 0.75 -19.972656 0.753906 -19.992188 0.765625 -20.015625 C 0.785156 -20.046875 0.820312 -20.0625 0.875 -20.0625 L 11.78125 -20.0625 C 11.832031 -20.0625 11.863281 -20.046875 11.875 -20.015625 C 11.882812 -19.992188 11.890625 -19.972656 11.890625 -19.953125 L 11.890625 -19.1875 C 11.890625 -19.164062 11.882812 -19.140625 11.875 -19.109375 C 11.863281 -19.078125 11.832031 -19.0625 11.78125 -19.0625 L 11.171875 -19.0625 C 10.640625 -19.0625 10.144531 -19.019531 9.6875 -18.9375 C 9.226562 -18.851562 8.859375 -18.757812 8.578125 -18.65625 C 8.359375 -18.582031 8.21875 -18.457031 8.15625 -18.28125 C 8.09375 -18.101562 8.0625 -17.800781 8.0625 -17.375 L 8.0625 -2.453125 C 8.082031 -2.285156 8.164062 -2.128906 8.3125 -1.984375 C 8.46875 -1.847656 8.644531 -1.78125 8.84375 -1.78125 L 13.8125 -1.78125 C 14.144531 -1.78125 14.457031 -1.847656 14.75 -1.984375 C 15.050781 -2.128906 15.332031 -2.3125 15.59375 -2.53125 C 15.851562 -2.757812 16.09375 -3.003906 16.3125 -3.265625 C 16.53125 -3.535156 16.726562 -3.789062 16.90625 -4.03125 C 17.082031 -4.28125 17.238281 -4.503906 17.375 -4.703125 C 17.519531 -4.898438 17.644531 -5.039062 17.75 -5.125 C 17.800781 -5.15625 17.859375 -5.179688 17.921875 -5.203125 C 17.984375 -5.234375 18.054688 -5.25 18.140625 -5.25 C 18.304688 -5.25 18.390625 -5.1875 18.390625 -5.0625 C 18.390625 -5.007812 18.375 -4.953125 18.34375 -4.890625 L 15.984375 -0.25 C 15.941406 -0.175781 15.894531 -0.113281 15.84375 -0.0625 C 15.800781 -0.0195312 15.75 0 15.6875 0 Z M 0.6875 0 "/></g></g></g><g fill="rgb(0%, 0%, 0%)" fill-opacity="1"><g transform="translate(84.506903, 196.528552)"><g><path d="M 0.078125 -0.671875 C 0.078125 -0.742188 0.113281 -0.78125 0.1875 -0.78125 C 0.363281 -0.789062 0.570312 -0.816406 0.8125 -0.859375 C 1.0625 -0.898438 1.3125 -0.988281 1.5625 -1.125 C 1.8125 -1.269531 2.050781 -1.476562 2.28125 -1.75 C 2.519531 -2.019531 2.722656 -2.390625 2.890625 -2.859375 L 8.609375 -19.453125 C 8.609375 -19.441406 8.609375 -19.445312 8.609375 -19.46875 C 8.617188 -19.488281 8.625 -19.503906 8.625 -19.515625 C 8.625 -19.585938 8.597656 -19.671875 8.546875 -19.765625 C 8.492188 -19.867188 8.46875 -19.941406 8.46875 -19.984375 C 8.46875 -20.035156 8.484375 -20.0625 8.515625 -20.0625 L 12.65625 -20.0625 C 12.664062 -20.050781 12.6875 -20.039062 12.71875 -20.03125 C 12.757812 -20.019531 12.789062 -19.992188 12.8125 -19.953125 L 18.828125 -3.0625 C 18.921875 -2.789062 19.007812 -2.5625 19.09375 -2.375 C 19.175781 -2.1875 19.273438 -2.019531 19.390625 -1.875 C 19.515625 -1.726562 19.664062 -1.59375 19.84375 -1.46875 C 20.03125 -1.351562 20.265625 -1.234375 20.546875 -1.109375 C 20.679688 -1.046875 20.859375 -0.972656 21.078125 -0.890625 C 21.304688 -0.816406 21.523438 -0.78125 21.734375 -0.78125 C 21.785156 -0.78125 21.816406 -0.765625 21.828125 -0.734375 C 21.847656 -0.710938 21.859375 -0.6875 21.859375 -0.65625 L 21.859375 -0.109375 C 21.859375 -0.0859375 21.847656 -0.0625 21.828125 -0.03125 C 21.816406 -0.0078125 21.785156 0 21.734375 0 L 11.75 0 C 11.707031 0 11.675781 -0.0078125 11.65625 -0.03125 C 11.644531 -0.0625 11.640625 -0.0859375 11.640625 -0.109375 L 11.640625 -0.671875 C 11.640625 -0.691406 11.644531 -0.710938 11.65625 -0.734375 C 11.675781 -0.765625 11.707031 -0.78125 11.75 -0.78125 C 11.789062 -0.78125 11.828125 -0.78125 11.859375 -0.78125 C 11.898438 -0.789062 11.929688 -0.796875 11.953125 -0.796875 C 12.054688 -0.804688 12.203125 -0.816406 12.390625 -0.828125 C 12.585938 -0.835938 12.800781 -0.851562 13.03125 -0.875 C 13.257812 -0.894531 13.488281 -0.929688 13.71875 -0.984375 C 13.957031 -1.035156 14.171875 -1.109375 14.359375 -1.203125 C 14.546875 -1.304688 14.703125 -1.4375 14.828125 -1.59375 C 14.953125 -1.757812 15.015625 -1.960938 15.015625 -2.203125 C 15.015625 -2.265625 15.003906 -2.332031 14.984375 -2.40625 L 13.125 -7.546875 C 13.113281 -7.554688 13.09375 -7.59375 13.0625 -7.65625 C 13.039062 -7.726562 13.003906 -7.800781 12.953125 -7.875 C 12.898438 -7.945312 12.832031 -8.007812 12.75 -8.0625 C 12.675781 -8.125 12.582031 -8.15625 12.46875 -8.15625 L 7.328125 -8.15625 C 7.203125 -8.15625 7.097656 -8.125 7.015625 -8.0625 C 6.929688 -8.007812 6.859375 -7.945312 6.796875 -7.875 C 6.742188 -7.8125 6.695312 -7.742188 6.65625 -7.671875 C 6.625 -7.609375 6.609375 -7.570312 6.609375 -7.5625 C 6.304688 -6.675781 6.050781 -5.925781 5.84375 -5.3125 C 5.632812 -4.695312 5.460938 -4.191406 5.328125 -3.796875 C 5.191406 -3.398438 5.082031 -3.09375 5 -2.875 C 4.925781 -2.65625 4.875 -2.492188 4.84375 -2.390625 C 4.8125 -2.296875 4.789062 -2.234375 4.78125 -2.203125 C 4.78125 -2.179688 4.78125 -2.171875 4.78125 -2.171875 C 4.78125 -2.148438 4.785156 -2.117188 4.796875 -2.078125 C 4.804688 -2.046875 4.816406 -2.015625 4.828125 -1.984375 C 4.898438 -1.753906 5.035156 -1.5625 5.234375 -1.40625 C 5.441406 -1.25 5.675781 -1.125 5.9375 -1.03125 C 6.207031 -0.9375 6.484375 -0.867188 6.765625 -0.828125 C 7.046875 -0.796875 7.296875 -0.78125 7.515625 -0.78125 L 7.875 -0.78125 C 7.925781 -0.78125 7.957031 -0.765625 7.96875 -0.734375 C 7.988281 -0.710938 8 -0.691406 8 -0.671875 L 8 -0.109375 C 8 -0.0859375 7.988281 -0.0625 7.96875 -0.03125 C 7.957031 -0.0078125 7.925781 0 7.875 0 L 0.1875 0 C 0.113281 0 0.078125 -0.0351562 0.078125 -0.109375 Z M 7.53125 -10.203125 C 7.507812 -10.148438 7.492188 -10.097656 7.484375 -10.046875 C 7.472656 -10.003906 7.46875 -9.960938 7.46875 -9.921875 C 7.46875 -9.859375 7.484375 -9.8125 7.515625 -9.78125 C 7.546875 -9.75 7.601562 -9.734375 7.6875 -9.734375 L 11.953125 -9.734375 C 12.054688 -9.734375 12.125 -9.753906 12.15625 -9.796875 C 12.1875 -9.835938 12.203125 -9.890625 12.203125 -9.953125 C 12.203125 -9.992188 12.195312 -10.03125 12.1875 -10.0625 C 12.1875 -10.101562 12.175781 -10.148438 12.15625 -10.203125 L 10.265625 -15.390625 C 10.210938 -15.523438 10.140625 -15.625 10.046875 -15.6875 C 9.953125 -15.75 9.867188 -15.78125 9.796875 -15.78125 C 9.710938 -15.78125 9.625 -15.742188 9.53125 -15.671875 C 9.4375 -15.597656 9.363281 -15.5 9.3125 -15.375 Z M 7.53125 -10.203125 "/></g></g></g><g fill="rgb(0%, 0%, 0%)" fill-opacity="1"><g transform="translate(107.797145, 196.528552)"><g><path d="M 0.75 0 C 0.695312 0 0.664062 -0.015625 0.65625 -0.046875 C 0.644531 -0.078125 0.640625 -0.0976562 0.640625 -0.109375 L 0.640625 -0.71875 C 0.640625 -0.726562 0.644531 -0.75 0.65625 -0.78125 C 0.664062 -0.820312 0.695312 -0.84375 0.75 -0.84375 L 1.0625 -0.84375 C 1.257812 -0.84375 1.503906 -0.851562 1.796875 -0.875 C 2.097656 -0.894531 2.382812 -0.957031 2.65625 -1.0625 C 2.9375 -1.175781 3.171875 -1.34375 3.359375 -1.5625 C 3.554688 -1.789062 3.65625 -2.097656 3.65625 -2.484375 L 3.65625 -17.65625 C 3.65625 -17.945312 3.585938 -18.191406 3.453125 -18.390625 C 3.328125 -18.597656 3.164062 -18.765625 2.96875 -18.890625 C 2.78125 -19.023438 2.566406 -19.117188 2.328125 -19.171875 C 2.097656 -19.234375 1.878906 -19.265625 1.671875 -19.265625 L 0.75 -19.265625 C 0.695312 -19.265625 0.664062 -19.28125 0.65625 -19.3125 C 0.644531 -19.34375 0.640625 -19.363281 0.640625 -19.375 L 0.640625 -19.984375 C 0.640625 -19.992188 0.644531 -20.015625 0.65625 -20.046875 C 0.664062 -20.085938 0.695312 -20.109375 0.75 -20.109375 L 1.0625 -20.109375 L 6.921875 -20.203125 C 7.460938 -20.210938 8.050781 -20.21875 8.6875 -20.21875 C 9.332031 -20.226562 9.929688 -20.234375 10.484375 -20.234375 C 11.085938 -20.234375 11.625 -20.222656 12.09375 -20.203125 C 12.570312 -20.191406 13.023438 -20.164062 13.453125 -20.125 C 13.890625 -20.082031 14.332031 -20.023438 14.78125 -19.953125 C 15.226562 -19.890625 15.726562 -19.800781 16.28125 -19.6875 C 17.332031 -19.46875 18.3125 -19.0625 19.21875 -18.46875 C 20.125 -17.882812 20.90625 -17.175781 21.5625 -16.34375 C 22.21875 -15.507812 22.734375 -14.582031 23.109375 -13.5625 C 23.484375 -12.550781 23.671875 -11.515625 23.671875 -10.453125 C 23.671875 -9.429688 23.53125 -8.460938 23.25 -7.546875 C 22.96875 -6.628906 22.570312 -5.785156 22.0625 -5.015625 C 21.550781 -4.242188 20.945312 -3.546875 20.25 -2.921875 C 19.550781 -2.296875 18.785156 -1.769531 17.953125 -1.34375 C 17.117188 -0.914062 16.234375 -0.582031 15.296875 -0.34375 C 14.359375 -0.113281 13.394531 0 12.40625 0 Z M 7.71875 -2.203125 C 7.71875 -1.929688 7.800781 -1.71875 7.96875 -1.5625 C 8.144531 -1.414062 8.378906 -1.304688 8.671875 -1.234375 C 8.960938 -1.160156 9.300781 -1.117188 9.6875 -1.109375 C 10.070312 -1.097656 10.476562 -1.09375 10.90625 -1.09375 C 13.726562 -1.09375 15.84375 -1.867188 17.25 -3.421875 C 18.65625 -4.984375 19.359375 -7.253906 19.359375 -10.234375 C 19.359375 -11.535156 19.195312 -12.734375 18.875 -13.828125 C 18.5625 -14.921875 18.082031 -15.859375 17.4375 -16.640625 C 16.789062 -17.429688 15.972656 -18.046875 14.984375 -18.484375 C 14.003906 -18.921875 12.847656 -19.140625 11.515625 -19.140625 L 8.0625 -19.140625 C 7.925781 -19.140625 7.832031 -19.109375 7.78125 -19.046875 C 7.738281 -18.984375 7.71875 -18.882812 7.71875 -18.75 Z M 7.71875 -2.203125 "/></g></g></g><g fill="rgb(0%, 0%, 0%)" fill-opacity="1"><g transform="translate(134.117312, 196.528552)"><g/></g></g><g fill="rgb(0%, 0%, 0%)" fill-opacity="1"><g transform="translate(143.310568, 196.528552)"><g><path d="M 1.9375 -0.390625 C 1.8125 -0.390625 1.734375 -0.488281 1.703125 -0.6875 C 1.597656 -1.570312 1.515625 -2.257812 1.453125 -2.75 C 1.398438 -3.25 1.363281 -3.617188 1.34375 -3.859375 C 1.320312 -4.109375 1.304688 -4.269531 1.296875 -4.34375 C 1.296875 -4.414062 1.296875 -4.46875 1.296875 -4.5 C 1.296875 -4.601562 1.34375 -4.710938 1.4375 -4.828125 C 1.53125 -4.953125 1.644531 -5.015625 1.78125 -5.015625 C 1.875 -5.015625 1.972656 -4.957031 2.078125 -4.84375 C 2.191406 -4.738281 2.296875 -4.609375 2.390625 -4.453125 C 2.492188 -4.296875 2.582031 -4.140625 2.65625 -3.984375 C 2.726562 -3.835938 2.769531 -3.734375 2.78125 -3.671875 C 3.03125 -3.148438 3.300781 -2.710938 3.59375 -2.359375 C 3.882812 -2.003906 4.210938 -1.71875 4.578125 -1.5 C 4.953125 -1.289062 5.367188 -1.132812 5.828125 -1.03125 C 6.296875 -0.9375 6.828125 -0.890625 7.421875 -0.890625 C 8.441406 -0.890625 9.234375 -1.128906 9.796875 -1.609375 C 10.359375 -2.097656 10.640625 -2.878906 10.640625 -3.953125 C 10.640625 -4.566406 10.503906 -5.125 10.234375 -5.625 C 9.960938 -6.132812 9.609375 -6.601562 9.171875 -7.03125 C 8.734375 -7.46875 8.234375 -7.878906 7.671875 -8.265625 C 7.117188 -8.648438 6.546875 -9.039062 5.953125 -9.4375 C 5.367188 -9.84375 4.796875 -10.257812 4.234375 -10.6875 C 3.679688 -11.125 3.1875 -11.601562 2.75 -12.125 C 2.3125 -12.644531 1.957031 -13.222656 1.6875 -13.859375 C 1.414062 -14.492188 1.28125 -15.207031 1.28125 -16 C 1.28125 -16.488281 1.367188 -16.941406 1.546875 -17.359375 C 1.722656 -17.773438 1.957031 -18.15625 2.25 -18.5 C 2.539062 -18.84375 2.882812 -19.148438 3.28125 -19.421875 C 3.675781 -19.691406 4.09375 -19.914062 4.53125 -20.09375 C 4.976562 -20.28125 5.429688 -20.421875 5.890625 -20.515625 C 6.359375 -20.609375 6.8125 -20.65625 7.25 -20.65625 C 7.59375 -20.65625 7.941406 -20.625 8.296875 -20.5625 C 8.660156 -20.5 9.015625 -20.425781 9.359375 -20.34375 C 9.703125 -20.257812 10.046875 -20.164062 10.390625 -20.0625 C 10.742188 -19.96875 11.09375 -19.878906 11.4375 -19.796875 L 12.375 -19.875 C 12.457031 -19.875 12.507812 -19.835938 12.53125 -19.765625 C 12.5625 -19.703125 12.582031 -19.640625 12.59375 -19.578125 L 13 -16.234375 C 13 -16.179688 12.9375 -16.144531 12.8125 -16.125 C 12.695312 -16.113281 12.601562 -16.109375 12.53125 -16.109375 C 12.476562 -16.109375 12.394531 -16.113281 12.28125 -16.125 C 12.164062 -16.144531 12.097656 -16.160156 12.078125 -16.171875 C 12.046875 -16.203125 12.007812 -16.257812 11.96875 -16.34375 C 11.925781 -16.4375 11.878906 -16.535156 11.828125 -16.640625 C 11.785156 -16.753906 11.738281 -16.867188 11.6875 -16.984375 C 11.632812 -17.097656 11.582031 -17.195312 11.53125 -17.28125 C 11.070312 -17.988281 10.484375 -18.515625 9.765625 -18.859375 C 9.054688 -19.203125 8.273438 -19.375 7.421875 -19.375 C 7.054688 -19.375 6.710938 -19.332031 6.390625 -19.25 C 6.066406 -19.164062 5.785156 -19.03125 5.546875 -18.84375 C 5.304688 -18.65625 5.117188 -18.421875 4.984375 -18.140625 C 4.847656 -17.859375 4.78125 -17.519531 4.78125 -17.125 C 4.78125 -16.539062 4.914062 -16.015625 5.1875 -15.546875 C 5.457031 -15.078125 5.8125 -14.632812 6.25 -14.21875 C 6.695312 -13.8125 7.203125 -13.410156 7.765625 -13.015625 C 8.328125 -12.628906 8.898438 -12.234375 9.484375 -11.828125 C 10.066406 -11.421875 10.640625 -10.988281 11.203125 -10.53125 C 11.765625 -10.082031 12.265625 -9.582031 12.703125 -9.03125 C 13.148438 -8.476562 13.507812 -7.863281 13.78125 -7.1875 C 14.050781 -6.519531 14.1875 -5.765625 14.1875 -4.921875 C 14.1875 -4.359375 14.085938 -3.832031 13.890625 -3.34375 C 13.703125 -2.863281 13.441406 -2.425781 13.109375 -2.03125 C 12.773438 -1.644531 12.382812 -1.300781 11.9375 -1 C 11.488281 -0.695312 11.007812 -0.441406 10.5 -0.234375 C 10 -0.0234375 9.476562 0.128906 8.9375 0.234375 C 8.40625 0.335938 7.882812 0.390625 7.375 0.390625 C 6.726562 0.390625 6.164062 0.335938 5.6875 0.234375 C 5.207031 0.140625 4.789062 0.0351562 4.4375 -0.078125 C 4.09375 -0.191406 3.800781 -0.296875 3.5625 -0.390625 C 3.332031 -0.492188 3.132812 -0.546875 2.96875 -0.546875 C 2.914062 -0.546875 2.875 -0.539062 2.84375 -0.53125 Z M 1.9375 -0.390625 "/></g></g></g><g fill="rgb(0%, 0%, 0%)" fill-opacity="1"><g transform="translate(160.142652, 196.528552)"><g><path d="M 3.53125 -17.578125 C 3.53125 -17.898438 3.441406 -18.164062 3.265625 -18.375 C 3.085938 -18.59375 2.859375 -18.769531 2.578125 -18.90625 C 2.304688 -19.050781 2.003906 -19.15625 1.671875 -19.21875 C 1.335938 -19.289062 1.007812 -19.332031 0.6875 -19.34375 C 0.601562 -19.34375 0.5625 -19.382812 0.5625 -19.46875 L 0.5625 -19.953125 C 0.5625 -20.023438 0.597656 -20.0625 0.671875 -20.0625 L 10.3125 -20.0625 C 10.363281 -20.0625 10.394531 -20.046875 10.40625 -20.015625 C 10.425781 -19.992188 10.4375 -19.972656 10.4375 -19.953125 L 10.4375 -19.46875 C 10.4375 -19.40625 10.394531 -19.375 10.3125 -19.375 C 10.039062 -19.375 9.742188 -19.347656 9.421875 -19.296875 C 9.109375 -19.253906 8.8125 -19.164062 8.53125 -19.03125 C 8.257812 -18.90625 8.03125 -18.722656 7.84375 -18.484375 C 7.664062 -18.242188 7.578125 -17.929688 7.578125 -17.546875 L 7.578125 -11.703125 C 7.578125 -11.296875 7.59375 -10.984375 7.625 -10.765625 C 7.65625 -10.546875 7.722656 -10.4375 7.828125 -10.4375 C 7.878906 -10.4375 7.929688 -10.4375 7.984375 -10.4375 C 8.035156 -10.445312 8.085938 -10.46875 8.140625 -10.5 C 8.679688 -10.75 9.164062 -11.046875 9.59375 -11.390625 C 10.03125 -11.742188 10.429688 -12.128906 10.796875 -12.546875 C 11.160156 -12.960938 11.5 -13.40625 11.8125 -13.875 C 12.132812 -14.34375 12.453125 -14.816406 12.765625 -15.296875 C 12.929688 -15.554688 13.109375 -15.816406 13.296875 -16.078125 C 13.492188 -16.347656 13.671875 -16.601562 13.828125 -16.84375 C 13.984375 -17.09375 14.113281 -17.332031 14.21875 -17.5625 C 14.320312 -17.800781 14.375 -18.03125 14.375 -18.25 C 14.375 -18.507812 14.3125 -18.710938 14.1875 -18.859375 C 14.0625 -19.003906 13.90625 -19.113281 13.71875 -19.1875 C 13.53125 -19.257812 13.328125 -19.300781 13.109375 -19.3125 C 12.890625 -19.332031 12.6875 -19.34375 12.5 -19.34375 L 12.34375 -19.34375 C 12.300781 -19.34375 12.269531 -19.359375 12.25 -19.390625 C 12.238281 -19.421875 12.234375 -19.445312 12.234375 -19.46875 L 12.234375 -19.953125 C 12.234375 -19.972656 12.238281 -19.992188 12.25 -20.015625 C 12.257812 -20.046875 12.289062 -20.0625 12.34375 -20.0625 L 21 -20.0625 C 21.050781 -20.0625 21.082031 -20.046875 21.09375 -20.015625 C 21.101562 -19.992188 21.109375 -19.972656 21.109375 -19.953125 L 21.109375 -19.46875 C 21.109375 -19.4375 21.09375 -19.398438 21.0625 -19.359375 C 21.039062 -19.316406 21 -19.296875 20.9375 -19.296875 C 20.363281 -19.273438 19.84375 -19.222656 19.375 -19.140625 C 18.90625 -19.066406 18.472656 -18.941406 18.078125 -18.765625 C 17.691406 -18.585938 17.332031 -18.335938 17 -18.015625 C 16.675781 -17.703125 16.367188 -17.296875 16.078125 -16.796875 C 15.578125 -15.953125 15.125 -15.222656 14.71875 -14.609375 C 14.320312 -14.003906 13.96875 -13.492188 13.65625 -13.078125 C 13.351562 -12.660156 13.09375 -12.320312 12.875 -12.0625 C 12.65625 -11.8125 12.472656 -11.601562 12.328125 -11.4375 C 12.179688 -11.269531 12.066406 -11.128906 11.984375 -11.015625 C 11.898438 -10.910156 11.851562 -10.804688 11.84375 -10.703125 C 11.882812 -10.609375 11.988281 -10.484375 12.15625 -10.328125 C 12.332031 -10.171875 12.5625 -9.960938 12.84375 -9.703125 C 13.125 -9.441406 13.457031 -9.125 13.84375 -8.75 C 14.226562 -8.375 14.664062 -7.90625 15.15625 -7.34375 C 15.65625 -6.789062 16.203125 -6.132812 16.796875 -5.375 C 17.398438 -4.625 18.046875 -3.757812 18.734375 -2.78125 C 19.066406 -2.289062 19.484375 -1.898438 19.984375 -1.609375 C 20.492188 -1.316406 21.0625 -1.101562 21.6875 -0.96875 C 22.007812 -0.894531 22.265625 -0.835938 22.453125 -0.796875 C 22.640625 -0.753906 22.789062 -0.726562 22.90625 -0.71875 C 23.019531 -0.707031 23.113281 -0.695312 23.1875 -0.6875 C 23.257812 -0.6875 23.335938 -0.6875 23.421875 -0.6875 C 23.460938 -0.6875 23.488281 -0.671875 23.5 -0.640625 C 23.519531 -0.609375 23.53125 -0.582031 23.53125 -0.5625 L 23.53125 -0.109375 C 23.53125 -0.0351562 23.492188 0 23.421875 0 L 12.828125 0 C 12.753906 0 12.71875 -0.0351562 12.71875 -0.109375 L 12.71875 -0.59375 C 12.71875 -0.664062 12.753906 -0.707031 12.828125 -0.71875 C 12.953125 -0.726562 13.125 -0.726562 13.34375 -0.71875 C 13.570312 -0.71875 13.789062 -0.734375 14 -0.765625 C 14.21875 -0.796875 14.40625 -0.863281 14.5625 -0.96875 C 14.726562 -1.070312 14.8125 -1.242188 14.8125 -1.484375 C 14.789062 -1.640625 14.679688 -1.875 14.484375 -2.1875 C 14.296875 -2.5 14.054688 -2.84375 13.765625 -3.21875 C 13.484375 -3.59375 13.175781 -3.972656 12.84375 -4.359375 C 12.519531 -4.753906 12.222656 -5.109375 11.953125 -5.421875 C 11.617188 -5.785156 11.300781 -6.160156 11 -6.546875 C 10.707031 -6.929688 10.40625 -7.28125 10.09375 -7.59375 C 9.78125 -7.914062 9.453125 -8.175781 9.109375 -8.375 C 8.765625 -8.570312 8.394531 -8.671875 8 -8.671875 L 7.71875 -8.671875 C 7.644531 -8.671875 7.601562 -8.65625 7.59375 -8.625 C 7.582031 -8.59375 7.578125 -8.546875 7.578125 -8.484375 L 7.578125 -2.46875 C 7.578125 -2.039062 7.664062 -1.707031 7.84375 -1.46875 C 8.019531 -1.226562 8.242188 -1.050781 8.515625 -0.9375 C 8.785156 -0.820312 9.082031 -0.75 9.40625 -0.71875 C 9.726562 -0.695312 10.03125 -0.6875 10.3125 -0.6875 C 10.363281 -0.6875 10.394531 -0.671875 10.40625 -0.640625 C 10.425781 -0.609375 10.4375 -0.582031 10.4375 -0.5625 L 10.4375 -0.109375 C 10.4375 -0.0859375 10.425781 -0.0625 10.40625 -0.03125 C 10.394531 -0.0078125 10.363281 0 10.3125 0 L 0.671875 0 C 0.597656 0 0.5625 -0.0351562 0.5625 -0.109375 L 0.5625 -0.59375 C 0.5625 -0.675781 0.601562 -0.71875 0.6875 -0.71875 C 1.007812 -0.71875 1.335938 -0.753906 1.671875 -0.828125 C 2.003906 -0.898438 2.304688 -1.003906 2.578125 -1.140625 C 2.859375 -1.285156 3.085938 -1.460938 3.265625 -1.671875 C 3.441406 -1.890625 3.53125 -2.160156 3.53125 -2.484375 Z M 3.53125 -17.578125 "/></g></g></g><g fill="rgb(0%, 0%, 0%)" fill-opacity="1"><g transform="translate(185.111439, 196.528552)"><g><path d="M 0.078125 -0.671875 C 0.078125 -0.742188 0.113281 -0.78125 0.1875 -0.78125 C 0.363281 -0.789062 0.570312 -0.816406 0.8125 -0.859375 C 1.0625 -0.898438 1.3125 -0.988281 1.5625 -1.125 C 1.8125 -1.269531 2.050781 -1.476562 2.28125 -1.75 C 2.519531 -2.019531 2.722656 -2.390625 2.890625 -2.859375 L 8.609375 -19.453125 C 8.609375 -19.441406 8.609375 -19.445312 8.609375 -19.46875 C 8.617188 -19.488281 8.625 -19.503906 8.625 -19.515625 C 8.625 -19.585938 8.597656 -19.671875 8.546875 -19.765625 C 8.492188 -19.867188 8.46875 -19.941406 8.46875 -19.984375 C 8.46875 -20.035156 8.484375 -20.0625 8.515625 -20.0625 L 12.65625 -20.0625 C 12.664062 -20.050781 12.6875 -20.039062 12.71875 -20.03125 C 12.757812 -20.019531 12.789062 -19.992188 12.8125 -19.953125 L 18.828125 -3.0625 C 18.921875 -2.789062 19.007812 -2.5625 19.09375 -2.375 C 19.175781 -2.1875 19.273438 -2.019531 19.390625 -1.875 C 19.515625 -1.726562 19.664062 -1.59375 19.84375 -1.46875 C 20.03125 -1.351562 20.265625 -1.234375 20.546875 -1.109375 C 20.679688 -1.046875 20.859375 -0.972656 21.078125 -0.890625 C 21.304688 -0.816406 21.523438 -0.78125 21.734375 -0.78125 C 21.785156 -0.78125 21.816406 -0.765625 21.828125 -0.734375 C 21.847656 -0.710938 21.859375 -0.6875 21.859375 -0.65625 L 21.859375 -0.109375 C 21.859375 -0.0859375 21.847656 -0.0625 21.828125 -0.03125 C 21.816406 -0.0078125 21.785156 0 21.734375 0 L 11.75 0 C 11.707031 0 11.675781 -0.0078125 11.65625 -0.03125 C 11.644531 -0.0625 11.640625 -0.0859375 11.640625 -0.109375 L 11.640625 -0.671875 C 11.640625 -0.691406 11.644531 -0.710938 11.65625 -0.734375 C 11.675781 -0.765625 11.707031 -0.78125 11.75 -0.78125 C 11.789062 -0.78125 11.828125 -0.78125 11.859375 -0.78125 C 11.898438 -0.789062 11.929688 -0.796875 11.953125 -0.796875 C 12.054688 -0.804688 12.203125 -0.816406 12.390625 -0.828125 C 12.585938 -0.835938 12.800781 -0.851562 13.03125 -0.875 C 13.257812 -0.894531 13.488281 -0.929688 13.71875 -0.984375 C 13.957031 -1.035156 14.171875 -1.109375 14.359375 -1.203125 C 14.546875 -1.304688 14.703125 -1.4375 14.828125 -1.59375 C 14.953125 -1.757812 15.015625 -1.960938 15.015625 -2.203125 C 15.015625 -2.265625 15.003906 -2.332031 14.984375 -2.40625 L 13.125 -7.546875 C 13.113281 -7.554688 13.09375 -7.59375 13.0625 -7.65625 C 13.039062 -7.726562 13.003906 -7.800781 12.953125 -7.875 C 12.898438 -7.945312 12.832031 -8.007812 12.75 -8.0625 C 12.675781 -8.125 12.582031 -8.15625 12.46875 -8.15625 L 7.328125 -8.15625 C 7.203125 -8.15625 7.097656 -8.125 7.015625 -8.0625 C 6.929688 -8.007812 6.859375 -7.945312 6.796875 -7.875 C 6.742188 -7.8125 6.695312 -7.742188 6.65625 -7.671875 C 6.625 -7.609375 6.609375 -7.570312 6.609375 -7.5625 C 6.304688 -6.675781 6.050781 -5.925781 5.84375 -5.3125 C 5.632812 -4.695312 5.460938 -4.191406 5.328125 -3.796875 C 5.191406 -3.398438 5.082031 -3.09375 5 -2.875 C 4.925781 -2.65625 4.875 -2.492188 4.84375 -2.390625 C 4.8125 -2.296875 4.789062 -2.234375 4.78125 -2.203125 C 4.78125 -2.179688 4.78125 -2.171875 4.78125 -2.171875 C 4.78125 -2.148438 4.785156 -2.117188 4.796875 -2.078125 C 4.804688 -2.046875 4.816406 -2.015625 4.828125 -1.984375 C 4.898438 -1.753906 5.035156 -1.5625 5.234375 -1.40625 C 5.441406 -1.25 5.675781 -1.125 5.9375 -1.03125 C 6.207031 -0.9375 6.484375 -0.867188 6.765625 -0.828125 C 7.046875 -0.796875 7.296875 -0.78125 7.515625 -0.78125 L 7.875 -0.78125 C 7.925781 -0.78125 7.957031 -0.765625 7.96875 -0.734375 C 7.988281 -0.710938 8 -0.691406 8 -0.671875 L 8 -0.109375 C 8 -0.0859375 7.988281 -0.0625 7.96875 -0.03125 C 7.957031 -0.0078125 7.925781 0 7.875 0 L 0.1875 0 C 0.113281 0 0.078125 -0.0351562 0.078125 -0.109375 Z M 7.53125 -10.203125 C 7.507812 -10.148438 7.492188 -10.097656 7.484375 -10.046875 C 7.472656 -10.003906 7.46875 -9.960938 7.46875 -9.921875 C 7.46875 -9.859375 7.484375 -9.8125 7.515625 -9.78125 C 7.546875 -9.75 7.601562 -9.734375 7.6875 -9.734375 L 11.953125 -9.734375 C 12.054688 -9.734375 12.125 -9.753906 12.15625 -9.796875 C 12.1875 -9.835938 12.203125 -9.890625 12.203125 -9.953125 C 12.203125 -9.992188 12.195312 -10.03125 12.1875 -10.0625 C 12.1875 -10.101562 12.175781 -10.148438 12.15625 -10.203125 L 10.265625 -15.390625 C 10.210938 -15.523438 10.140625 -15.625 10.046875 -15.6875 C 9.953125 -15.75 9.867188 -15.78125 9.796875 -15.78125 C 9.710938 -15.78125 9.625 -15.742188 9.53125 -15.671875 C 9.4375 -15.597656 9.363281 -15.5 9.3125 -15.375 Z M 7.53125 -10.203125 "/></g></g></g><g fill="rgb(0%, 0%, 0%)" fill-opacity="1"><g transform="translate(208.401675, 196.528552)"><g><path d="M 1.5 -9.90625 C 1.5 -10.96875 1.628906 -11.96875 1.890625 -12.90625 C 2.160156 -13.851562 2.535156 -14.722656 3.015625 -15.515625 C 3.492188 -16.316406 4.078125 -17.035156 4.765625 -17.671875 C 5.453125 -18.304688 6.207031 -18.84375 7.03125 -19.28125 C 7.863281 -19.726562 8.753906 -20.066406 9.703125 -20.296875 C 10.648438 -20.535156 11.640625 -20.65625 12.671875 -20.65625 C 13.546875 -20.65625 14.390625 -20.578125 15.203125 -20.421875 C 16.015625 -20.265625 16.851562 -20.082031 17.71875 -19.875 C 17.851562 -19.84375 18 -19.796875 18.15625 -19.734375 C 18.3125 -19.679688 18.457031 -19.628906 18.59375 -19.578125 C 18.738281 -19.523438 18.867188 -19.476562 18.984375 -19.4375 C 19.097656 -19.394531 19.179688 -19.375 19.234375 -19.375 C 19.253906 -19.375 19.316406 -19.394531 19.421875 -19.4375 C 19.535156 -19.476562 19.617188 -19.5 19.671875 -19.5 L 20.3125 -19.5 C 20.425781 -19.5 20.484375 -19.414062 20.484375 -19.25 L 20.484375 -14.609375 C 20.484375 -14.554688 20.460938 -14.519531 20.421875 -14.5 C 20.378906 -14.476562 20.285156 -14.46875 20.140625 -14.46875 C 20.117188 -14.46875 20.046875 -14.46875 19.921875 -14.46875 C 19.804688 -14.476562 19.734375 -14.507812 19.703125 -14.5625 C 19.679688 -14.582031 19.644531 -14.632812 19.59375 -14.71875 C 19.539062 -14.8125 19.484375 -14.898438 19.421875 -14.984375 C 19.367188 -15.078125 19.316406 -15.160156 19.265625 -15.234375 C 19.210938 -15.316406 19.179688 -15.375 19.171875 -15.40625 C 18.804688 -16.125 18.410156 -16.722656 17.984375 -17.203125 C 17.554688 -17.691406 17.082031 -18.085938 16.5625 -18.390625 C 16.050781 -18.703125 15.488281 -18.925781 14.875 -19.0625 C 14.269531 -19.195312 13.613281 -19.265625 12.90625 -19.265625 C 12 -19.265625 11.195312 -19.160156 10.5 -18.953125 C 9.8125 -18.742188 9.203125 -18.445312 8.671875 -18.0625 C 8.148438 -17.6875 7.710938 -17.234375 7.359375 -16.703125 C 7.003906 -16.171875 6.710938 -15.585938 6.484375 -14.953125 C 6.265625 -14.328125 6.101562 -13.65625 6 -12.9375 C 5.90625 -12.21875 5.859375 -11.484375 5.859375 -10.734375 C 5.859375 -9.921875 5.914062 -9.117188 6.03125 -8.328125 C 6.144531 -7.535156 6.328125 -6.78125 6.578125 -6.0625 C 6.835938 -5.351562 7.171875 -4.691406 7.578125 -4.078125 C 7.984375 -3.460938 8.46875 -2.929688 9.03125 -2.484375 C 9.601562 -2.035156 10.269531 -1.679688 11.03125 -1.421875 C 11.789062 -1.160156 12.648438 -1.03125 13.609375 -1.03125 C 14.410156 -1.03125 15.160156 -1.148438 15.859375 -1.390625 C 16.554688 -1.640625 17.191406 -1.96875 17.765625 -2.375 C 18.347656 -2.789062 18.863281 -3.265625 19.3125 -3.796875 C 19.757812 -4.335938 20.144531 -4.90625 20.46875 -5.5 C 20.488281 -5.539062 20.507812 -5.5625 20.53125 -5.5625 C 20.5625 -5.570312 20.597656 -5.578125 20.640625 -5.578125 L 21.375 -5.578125 C 21.40625 -5.578125 21.4375 -5.5625 21.46875 -5.53125 C 21.5 -5.507812 21.515625 -5.460938 21.515625 -5.390625 C 21.515625 -5.359375 21.492188 -5.285156 21.453125 -5.171875 C 21.410156 -5.054688 21.363281 -4.953125 21.3125 -4.859375 L 19.34375 -0.546875 C 19.332031 -0.515625 19.304688 -0.488281 19.265625 -0.46875 C 19.222656 -0.445312 19.191406 -0.4375 19.171875 -0.4375 C 18.941406 -0.4375 18.78125 -0.457031 18.6875 -0.5 C 18.59375 -0.539062 18.5 -0.5625 18.40625 -0.5625 C 18.125 -0.5625 17.75 -0.507812 17.28125 -0.40625 C 16.8125 -0.300781 16.300781 -0.191406 15.75 -0.078125 C 15.207031 0.0234375 14.660156 0.128906 14.109375 0.234375 C 13.554688 0.335938 13.0625 0.390625 12.625 0.390625 C 11.625 0.390625 10.65625 0.28125 9.71875 0.0625 C 8.78125 -0.15625 7.894531 -0.472656 7.0625 -0.890625 C 6.238281 -1.304688 5.484375 -1.8125 4.796875 -2.40625 C 4.117188 -3.007812 3.535156 -3.691406 3.046875 -4.453125 C 2.554688 -5.210938 2.175781 -6.050781 1.90625 -6.96875 C 1.632812 -7.882812 1.5 -8.863281 1.5 -9.90625 Z M 1.5 -9.90625 "/></g></g></g><g fill="rgb(0%, 0%, 0%)" fill-opacity="1"><g transform="translate(232.374711, 196.528552)"><g><path d="M 0.96875 0 C 0.914062 0 0.882812 -0.0078125 0.875 -0.03125 C 0.863281 -0.0625 0.859375 -0.0859375 0.859375 -0.109375 L 0.859375 -0.875 C 0.859375 -0.894531 0.863281 -0.921875 0.875 -0.953125 C 0.882812 -0.984375 0.914062 -1 0.96875 -1 C 1.257812 -1 1.554688 -1.019531 1.859375 -1.0625 C 2.160156 -1.101562 2.429688 -1.191406 2.671875 -1.328125 C 2.921875 -1.472656 3.125 -1.675781 3.28125 -1.9375 C 3.4375 -2.207031 3.515625 -2.570312 3.515625 -3.03125 L 3.515625 -17.28125 C 3.515625 -17.601562 3.460938 -17.875 3.359375 -18.09375 C 3.253906 -18.3125 3.101562 -18.488281 2.90625 -18.625 C 2.71875 -18.769531 2.488281 -18.875 2.21875 -18.9375 C 1.957031 -19 1.671875 -19.039062 1.359375 -19.0625 C 1.273438 -19.0625 1.234375 -19.101562 1.234375 -19.1875 L 1.234375 -19.953125 C 1.234375 -20.023438 1.269531 -20.0625 1.34375 -20.0625 L 9.765625 -20.0625 C 9.804688 -20.0625 9.832031 -20.046875 9.84375 -20.015625 C 9.863281 -19.992188 9.875 -19.972656 9.875 -19.953125 L 9.875 -19.1875 C 9.875 -19.125 9.835938 -19.09375 9.765625 -19.09375 C 9.472656 -19.09375 9.191406 -19.066406 8.921875 -19.015625 C 8.660156 -18.960938 8.429688 -18.863281 8.234375 -18.71875 C 8.035156 -18.582031 7.875 -18.382812 7.75 -18.125 C 7.625 -17.863281 7.5625 -17.519531 7.5625 -17.09375 L 7.5625 -11.21875 C 7.5625 -11.125 7.578125 -11.0625 7.609375 -11.03125 C 7.640625 -11.007812 7.703125 -11 7.796875 -11 L 17.734375 -11 C 17.828125 -11 17.882812 -11.007812 17.90625 -11.03125 C 17.9375 -11.0625 17.953125 -11.125 17.953125 -11.21875 L 17.953125 -17.3125 C 17.953125 -17.644531 17.847656 -17.921875 17.640625 -18.140625 C 17.429688 -18.359375 17.164062 -18.53125 16.84375 -18.65625 C 16.53125 -18.789062 16.1875 -18.882812 15.8125 -18.9375 C 15.445312 -19 15.109375 -19.039062 14.796875 -19.0625 C 14.722656 -19.0625 14.6875 -19.101562 14.6875 -19.1875 L 14.6875 -19.953125 C 14.6875 -20.023438 14.71875 -20.0625 14.78125 -20.0625 L 24.28125 -20.0625 C 24.320312 -20.0625 24.347656 -20.046875 24.359375 -20.015625 C 24.378906 -19.992188 24.390625 -19.972656 24.390625 -19.953125 L 24.390625 -19.1875 C 24.390625 -19.125 24.351562 -19.09375 24.28125 -19.09375 C 23.988281 -19.09375 23.707031 -19.066406 23.4375 -19.015625 C 23.164062 -18.960938 22.921875 -18.863281 22.703125 -18.71875 C 22.492188 -18.582031 22.328125 -18.382812 22.203125 -18.125 C 22.078125 -17.863281 22.015625 -17.519531 22.015625 -17.09375 L 22.015625 -3 C 22.015625 -2.75 22.046875 -2.523438 22.109375 -2.328125 C 22.179688 -2.140625 22.296875 -1.953125 22.453125 -1.765625 C 22.609375 -1.554688 22.859375 -1.378906 23.203125 -1.234375 C 23.546875 -1.097656 24.035156 -1.019531 24.671875 -1 C 24.742188 -1 24.78125 -0.957031 24.78125 -0.875 L 24.78125 -0.109375 C 24.78125 -0.0351562 24.742188 0 24.671875 0 L 14.34375 0 C 14.289062 0 14.257812 -0.0078125 14.25 -0.03125 C 14.238281 -0.0625 14.234375 -0.0859375 14.234375 -0.109375 L 14.234375 -0.875 C 14.234375 -0.894531 14.238281 -0.921875 14.25 -0.953125 C 14.257812 -0.984375 14.289062 -1 14.34375 -1 C 14.625 -1 14.96875 -1.015625 15.375 -1.046875 C 15.789062 -1.085938 16.1875 -1.171875 16.5625 -1.296875 C 16.945312 -1.429688 17.273438 -1.617188 17.546875 -1.859375 C 17.816406 -2.097656 17.953125 -2.425781 17.953125 -2.84375 L 17.953125 -9 C 17.953125 -9.09375 17.9375 -9.148438 17.90625 -9.171875 C 17.882812 -9.203125 17.828125 -9.21875 17.734375 -9.21875 L 7.796875 -9.21875 C 7.703125 -9.21875 7.640625 -9.203125 7.609375 -9.171875 C 7.578125 -9.148438 7.5625 -9.09375 7.5625 -9 L 7.5625 -2.703125 C 7.5625 -2.378906 7.632812 -2.109375 7.78125 -1.890625 C 7.925781 -1.671875 8.113281 -1.492188 8.34375 -1.359375 C 8.570312 -1.234375 8.835938 -1.140625 9.140625 -1.078125 C 9.453125 -1.023438 9.769531 -1 10.09375 -1 C 10.144531 -1 10.175781 -0.984375 10.1875 -0.953125 C 10.195312 -0.921875 10.203125 -0.894531 10.203125 -0.875 L 10.203125 -0.109375 C 10.203125 -0.0859375 10.195312 -0.0625 10.1875 -0.03125 C 10.175781 -0.0078125 10.148438 0 10.109375 0 Z M 0.96875 0 "/></g></g></g><g fill="rgb(0%, 0%, 0%)" fill-opacity="1"><g transform="translate(259.377684, 196.528552)"><g><path d="M 3.53125 -17.578125 C 3.53125 -17.898438 3.441406 -18.164062 3.265625 -18.375 C 3.085938 -18.59375 2.859375 -18.769531 2.578125 -18.90625 C 2.304688 -19.050781 2.003906 -19.15625 1.671875 -19.21875 C 1.335938 -19.289062 1.007812 -19.332031 0.6875 -19.34375 C 0.601562 -19.34375 0.5625 -19.382812 0.5625 -19.46875 L 0.5625 -19.953125 C 0.5625 -20.023438 0.597656 -20.0625 0.671875 -20.0625 L 10.3125 -20.0625 C 10.363281 -20.0625 10.394531 -20.046875 10.40625 -20.015625 C 10.425781 -19.992188 10.4375 -19.972656 10.4375 -19.953125 L 10.4375 -19.46875 C 10.4375 -19.40625 10.394531 -19.375 10.3125 -19.375 C 10.039062 -19.375 9.742188 -19.347656 9.421875 -19.296875 C 9.109375 -19.253906 8.8125 -19.164062 8.53125 -19.03125 C 8.257812 -18.90625 8.03125 -18.722656 7.84375 -18.484375 C 7.664062 -18.242188 7.578125 -17.929688 7.578125 -17.546875 L 7.578125 -11.703125 C 7.578125 -11.296875 7.59375 -10.984375 7.625 -10.765625 C 7.65625 -10.546875 7.722656 -10.4375 7.828125 -10.4375 C 7.878906 -10.4375 7.929688 -10.4375 7.984375 -10.4375 C 8.035156 -10.445312 8.085938 -10.46875 8.140625 -10.5 C 8.679688 -10.75 9.164062 -11.046875 9.59375 -11.390625 C 10.03125 -11.742188 10.429688 -12.128906 10.796875 -12.546875 C 11.160156 -12.960938 11.5 -13.40625 11.8125 -13.875 C 12.132812 -14.34375 12.453125 -14.816406 12.765625 -15.296875 C 12.929688 -15.554688 13.109375 -15.816406 13.296875 -16.078125 C 13.492188 -16.347656 13.671875 -16.601562 13.828125 -16.84375 C 13.984375 -17.09375 14.113281 -17.332031 14.21875 -17.5625 C 14.320312 -17.800781 14.375 -18.03125 14.375 -18.25 C 14.375 -18.507812 14.3125 -18.710938 14.1875 -18.859375 C 14.0625 -19.003906 13.90625 -19.113281 13.71875 -19.1875 C 13.53125 -19.257812 13.328125 -19.300781 13.109375 -19.3125 C 12.890625 -19.332031 12.6875 -19.34375 12.5 -19.34375 L 12.34375 -19.34375 C 12.300781 -19.34375 12.269531 -19.359375 12.25 -19.390625 C 12.238281 -19.421875 12.234375 -19.445312 12.234375 -19.46875 L 12.234375 -19.953125 C 12.234375 -19.972656 12.238281 -19.992188 12.25 -20.015625 C 12.257812 -20.046875 12.289062 -20.0625 12.34375 -20.0625 L 21 -20.0625 C 21.050781 -20.0625 21.082031 -20.046875 21.09375 -20.015625 C 21.101562 -19.992188 21.109375 -19.972656 21.109375 -19.953125 L 21.109375 -19.46875 C 21.109375 -19.4375 21.09375 -19.398438 21.0625 -19.359375 C 21.039062 -19.316406 21 -19.296875 20.9375 -19.296875 C 20.363281 -19.273438 19.84375 -19.222656 19.375 -19.140625 C 18.90625 -19.066406 18.472656 -18.941406 18.078125 -18.765625 C 17.691406 -18.585938 17.332031 -18.335938 17 -18.015625 C 16.675781 -17.703125 16.367188 -17.296875 16.078125 -16.796875 C 15.578125 -15.953125 15.125 -15.222656 14.71875 -14.609375 C 14.320312 -14.003906 13.96875 -13.492188 13.65625 -13.078125 C 13.351562 -12.660156 13.09375 -12.320312 12.875 -12.0625 C 12.65625 -11.8125 12.472656 -11.601562 12.328125 -11.4375 C 12.179688 -11.269531 12.066406 -11.128906 11.984375 -11.015625 C 11.898438 -10.910156 11.851562 -10.804688 11.84375 -10.703125 C 11.882812 -10.609375 11.988281 -10.484375 12.15625 -10.328125 C 12.332031 -10.171875 12.5625 -9.960938 12.84375 -9.703125 C 13.125 -9.441406 13.457031 -9.125 13.84375 -8.75 C 14.226562 -8.375 14.664062 -7.90625 15.15625 -7.34375 C 15.65625 -6.789062 16.203125 -6.132812 16.796875 -5.375 C 17.398438 -4.625 18.046875 -3.757812 18.734375 -2.78125 C 19.066406 -2.289062 19.484375 -1.898438 19.984375 -1.609375 C 20.492188 -1.316406 21.0625 -1.101562 21.6875 -0.96875 C 22.007812 -0.894531 22.265625 -0.835938 22.453125 -0.796875 C 22.640625 -0.753906 22.789062 -0.726562 22.90625 -0.71875 C 23.019531 -0.707031 23.113281 -0.695312 23.1875 -0.6875 C 23.257812 -0.6875 23.335938 -0.6875 23.421875 -0.6875 C 23.460938 -0.6875 23.488281 -0.671875 23.5 -0.640625 C 23.519531 -0.609375 23.53125 -0.582031 23.53125 -0.5625 L 23.53125 -0.109375 C 23.53125 -0.0351562 23.492188 0 23.421875 0 L 12.828125 0 C 12.753906 0 12.71875 -0.0351562 12.71875 -0.109375 L 12.71875 -0.59375 C 12.71875 -0.664062 12.753906 -0.707031 12.828125 -0.71875 C 12.953125 -0.726562 13.125 -0.726562 13.34375 -0.71875 C 13.570312 -0.71875 13.789062 -0.734375 14 -0.765625 C 14.21875 -0.796875 14.40625 -0.863281 14.5625 -0.96875 C 14.726562 -1.070312 14.8125 -1.242188 14.8125 -1.484375 C 14.789062 -1.640625 14.679688 -1.875 14.484375 -2.1875 C 14.296875 -2.5 14.054688 -2.84375 13.765625 -3.21875 C 13.484375 -3.59375 13.175781 -3.972656 12.84375 -4.359375 C 12.519531 -4.753906 12.222656 -5.109375 11.953125 -5.421875 C 11.617188 -5.785156 11.300781 -6.160156 11 -6.546875 C 10.707031 -6.929688 10.40625 -7.28125 10.09375 -7.59375 C 9.78125 -7.914062 9.453125 -8.175781 9.109375 -8.375 C 8.765625 -8.570312 8.394531 -8.671875 8 -8.671875 L 7.71875 -8.671875 C 7.644531 -8.671875 7.601562 -8.65625 7.59375 -8.625 C 7.582031 -8.59375 7.578125 -8.546875 7.578125 -8.484375 L 7.578125 -2.46875 C 7.578125 -2.039062 7.664062 -1.707031 7.84375 -1.46875 C 8.019531 -1.226562 8.242188 -1.050781 8.515625 -0.9375 C 8.785156 -0.820312 9.082031 -0.75 9.40625 -0.71875 C 9.726562 -0.695312 10.03125 -0.6875 10.3125 -0.6875 C 10.363281 -0.6875 10.394531 -0.671875 10.40625 -0.640625 C 10.425781 -0.609375 10.4375 -0.582031 10.4375 -0.5625 L 10.4375 -0.109375 C 10.4375 -0.0859375 10.425781 -0.0625 10.40625 -0.03125 C 10.394531 -0.0078125 10.363281 0 10.3125 0 L 0.671875 0 C 0.597656 0 0.5625 -0.0351562 0.5625 -0.109375 L 0.5625 -0.59375 C 0.5625 -0.675781 0.601562 -0.71875 0.6875 -0.71875 C 1.007812 -0.71875 1.335938 -0.753906 1.671875 -0.828125 C 2.003906 -0.898438 2.304688 -1.003906 2.578125 -1.140625 C 2.859375 -1.285156 3.085938 -1.460938 3.265625 -1.671875 C 3.441406 -1.890625 3.53125 -2.160156 3.53125 -2.484375 Z M 3.53125 -17.578125 "/></g></g></g><g fill="rgb(0%, 0%, 0%)" fill-opacity="1"><g transform="translate(284.346471, 196.528552)"><g><path d="M 12.828125 0.375 C 12.503906 0.375 12.09375 0.34375 11.59375 0.28125 C 11.09375 0.226562 10.546875 0.128906 9.953125 -0.015625 C 9.359375 -0.171875 8.738281 -0.375 8.09375 -0.625 C 7.445312 -0.875 6.8125 -1.191406 6.1875 -1.578125 C 5.570312 -1.960938 4.984375 -2.414062 4.421875 -2.9375 C 3.859375 -3.46875 3.363281 -4.078125 2.9375 -4.765625 C 2.519531 -5.460938 2.1875 -6.257812 1.9375 -7.15625 C 1.6875 -8.050781 1.5625 -9.050781 1.5625 -10.15625 C 1.5625 -11.144531 1.695312 -12.085938 1.96875 -12.984375 C 2.238281 -13.890625 2.625 -14.726562 3.125 -15.5 C 3.632812 -16.28125 4.242188 -16.988281 4.953125 -17.625 C 5.671875 -18.257812 6.46875 -18.800781 7.34375 -19.25 C 8.226562 -19.695312 9.1875 -20.039062 10.21875 -20.28125 C 11.257812 -20.53125 12.347656 -20.65625 13.484375 -20.65625 C 14.472656 -20.65625 15.429688 -20.535156 16.359375 -20.296875 C 17.285156 -20.054688 18.148438 -19.710938 18.953125 -19.265625 C 19.753906 -18.828125 20.488281 -18.300781 21.15625 -17.6875 C 21.832031 -17.070312 22.410156 -16.382812 22.890625 -15.625 C 23.378906 -14.863281 23.753906 -14.046875 24.015625 -13.171875 C 24.285156 -12.296875 24.421875 -11.382812 24.421875 -10.4375 C 24.421875 -9.539062 24.289062 -8.648438 24.03125 -7.765625 C 23.769531 -6.890625 23.398438 -6.050781 22.921875 -5.25 C 22.441406 -4.457031 21.859375 -3.71875 21.171875 -3.03125 C 20.484375 -2.34375 19.710938 -1.742188 18.859375 -1.234375 C 18.003906 -0.734375 17.066406 -0.335938 16.046875 -0.046875 C 15.035156 0.234375 13.960938 0.375 12.828125 0.375 Z M 5.75 -10.6875 C 5.75 -9.914062 5.828125 -9.144531 5.984375 -8.375 C 6.140625 -7.613281 6.367188 -6.875 6.671875 -6.15625 C 6.972656 -5.445312 7.347656 -4.78125 7.796875 -4.15625 C 8.242188 -3.539062 8.75 -3 9.3125 -2.53125 C 9.882812 -2.070312 10.519531 -1.710938 11.21875 -1.453125 C 11.914062 -1.191406 12.671875 -1.0625 13.484375 -1.0625 C 14.628906 -1.0625 15.625 -1.304688 16.46875 -1.796875 C 17.320312 -2.285156 18.023438 -2.929688 18.578125 -3.734375 C 19.128906 -4.546875 19.539062 -5.472656 19.8125 -6.515625 C 20.082031 -7.566406 20.21875 -8.65625 20.21875 -9.78125 C 20.21875 -10.59375 20.140625 -11.390625 19.984375 -12.171875 C 19.828125 -12.953125 19.597656 -13.695312 19.296875 -14.40625 C 19.003906 -15.113281 18.632812 -15.765625 18.1875 -16.359375 C 17.75 -16.953125 17.242188 -17.460938 16.671875 -17.890625 C 16.097656 -18.328125 15.460938 -18.664062 14.765625 -18.90625 C 14.066406 -19.15625 13.3125 -19.28125 12.5 -19.28125 C 11.757812 -19.28125 11.082031 -19.164062 10.46875 -18.9375 C 9.851562 -18.707031 9.296875 -18.394531 8.796875 -18 C 8.296875 -17.613281 7.859375 -17.144531 7.484375 -16.59375 C 7.109375 -16.050781 6.789062 -15.460938 6.53125 -14.828125 C 6.269531 -14.191406 6.070312 -13.519531 5.9375 -12.8125 C 5.8125 -12.101562 5.75 -11.394531 5.75 -10.6875 Z M 5.75 -10.6875 "/></g></g></g><g fill="rgb(0%, 0%, 0%)" fill-opacity="1"><g transform="translate(311.690845, 196.528552)"><g><path d="M 10.34375 0.390625 C 10.113281 0.390625 9.96875 0.285156 9.90625 0.078125 L 2.484375 -17.890625 C 2.398438 -18.097656 2.289062 -18.273438 2.15625 -18.421875 C 2.019531 -18.566406 1.878906 -18.6875 1.734375 -18.78125 C 1.585938 -18.882812 1.445312 -18.960938 1.3125 -19.015625 C 1.1875 -19.066406 1.082031 -19.101562 1 -19.125 C 0.925781 -19.144531 0.847656 -19.160156 0.765625 -19.171875 C 0.679688 -19.191406 0.597656 -19.207031 0.515625 -19.21875 C 0.429688 -19.238281 0.359375 -19.253906 0.296875 -19.265625 C 0.234375 -19.273438 0.195312 -19.28125 0.1875 -19.28125 C 0.113281 -19.28125 0.078125 -19.316406 0.078125 -19.390625 L 0.078125 -19.953125 C 0.078125 -20.023438 0.113281 -20.0625 0.1875 -20.0625 L 9.859375 -20.0625 C 9.921875 -20.0625 9.953125 -20.046875 9.953125 -20.015625 C 9.960938 -19.992188 9.96875 -19.972656 9.96875 -19.953125 L 9.96875 -19.390625 C 9.96875 -19.367188 9.960938 -19.34375 9.953125 -19.3125 C 9.941406 -19.289062 9.910156 -19.28125 9.859375 -19.28125 L 9.640625 -19.28125 C 9.410156 -19.238281 9.144531 -19.195312 8.84375 -19.15625 C 8.539062 -19.125 8.257812 -19.054688 8 -18.953125 C 7.738281 -18.859375 7.519531 -18.710938 7.34375 -18.515625 C 7.175781 -18.328125 7.09375 -18.0625 7.09375 -17.71875 C 7.09375 -17.59375 7.113281 -17.445312 7.15625 -17.28125 C 7.195312 -17.125 7.238281 -16.992188 7.28125 -16.890625 L 12.359375 -4.5625 C 12.367188 -4.539062 12.378906 -4.519531 12.390625 -4.5 C 12.410156 -4.488281 12.429688 -4.472656 12.453125 -4.453125 C 12.472656 -4.429688 12.488281 -4.421875 12.5 -4.421875 C 12.570312 -4.421875 12.625 -4.472656 12.65625 -4.578125 L 17.328125 -17.1875 C 17.367188 -17.289062 17.410156 -17.382812 17.453125 -17.46875 C 17.492188 -17.5625 17.515625 -17.65625 17.515625 -17.75 C 17.515625 -18.082031 17.40625 -18.367188 17.1875 -18.609375 C 16.96875 -18.859375 16.664062 -19.015625 16.28125 -19.078125 C 16.21875 -19.085938 16.125 -19.101562 16 -19.125 C 15.875 -19.144531 15.738281 -19.164062 15.59375 -19.1875 C 15.445312 -19.207031 15.304688 -19.226562 15.171875 -19.25 C 15.046875 -19.269531 14.953125 -19.28125 14.890625 -19.28125 C 14.816406 -19.28125 14.78125 -19.316406 14.78125 -19.390625 L 14.78125 -19.953125 C 14.78125 -19.972656 14.785156 -19.992188 14.796875 -20.015625 C 14.804688 -20.046875 14.835938 -20.0625 14.890625 -20.0625 L 22.515625 -20.0625 C 22.566406 -20.0625 22.597656 -20.046875 22.609375 -20.015625 C 22.617188 -19.992188 22.625 -19.972656 22.625 -19.953125 L 22.625 -19.390625 C 22.625 -19.359375 22.617188 -19.332031 22.609375 -19.3125 C 22.597656 -19.289062 22.566406 -19.28125 22.515625 -19.28125 L 21.984375 -19.28125 C 21.460938 -19.175781 21.03125 -18.972656 20.6875 -18.671875 C 20.351562 -18.378906 20.070312 -18.03125 19.84375 -17.625 C 19.613281 -17.21875 19.414062 -16.785156 19.25 -16.328125 C 19.09375 -15.867188 18.929688 -15.425781 18.765625 -15 L 13.265625 -0.109375 C 13.179688 0.117188 13.078125 0.257812 12.953125 0.3125 C 12.828125 0.363281 12.65625 0.390625 12.4375 0.390625 Z M 10.34375 0.390625 "/></g></g></g></svg>